<svg width="20" height="20" viewBox="0 0 20 20" fill="none" xmlns="http://www.w3.org/2000/svg">
<g opacity="0.5">
<path d="M8.74179 1.85781L4.58346 3.41614C3.62513 3.77448 2.8418 4.9078 2.8418 5.9328V12.1245C2.8418 13.1078 3.49181 14.3995 4.28347 14.9911L7.8668 17.6661C9.0418 18.5495 10.9751 18.5495 12.1501 17.6661L15.7335 14.9911C16.5251 14.3995 17.1751 13.1078 17.1751 12.1245V5.9328C17.1751 4.9078 16.3918 3.77448 15.4335 3.41614L11.2751 1.85781C10.5668 1.59948 9.43345 1.59948 8.74179 1.85781Z" stroke="#24181B" stroke-width="1.25" stroke-linecap="round" stroke-linejoin="round"/>
<path d="M10.0001 9.10132C9.96674 9.10132 9.92507 9.10132 9.89173 9.10132C9.1084 9.07632 8.4834 8.42631 8.4834 7.63464C8.4834 6.82631 9.14174 6.16797 9.95007 6.16797C10.7584 6.16797 11.4167 6.82631 11.4167 7.63464C11.4084 8.43464 10.7834 9.07632 10.0001 9.10132Z" stroke="#24181B" stroke-width="1.25" stroke-linecap="round" stroke-linejoin="round"/>
<path d="M8.3417 11.4328C7.5417 11.9661 7.5417 12.8411 8.3417 13.3745C9.25003 13.9828 10.7417 13.9828 11.65 13.3745C12.45 12.8411 12.45 11.9661 11.65 11.4328C10.75 10.8245 9.25837 10.8245 8.3417 11.4328Z" stroke="#24181B" stroke-width="1.25" stroke-linecap="round" stroke-linejoin="round"/>
</g>
</svg>
