<svg width="20" height="20" viewBox="0 0 20 20" fill="none" xmlns="http://www.w3.org/2000/svg">
<g opacity="0.5">
<path d="M2 10H3.23068C3.61223 10 3.80301 10 3.969 9.93945C4.11571 9.88594 4.24784 9.79881 4.35482 9.68504C4.47586 9.55632 4.55101 9.38097 4.70131 9.03027L5.94154 6.13641C6.48621 4.86551 6.75854 4.23007 7.11006 4.06954C7.41439 3.93056 7.76804 3.95298 8.05239 4.12926C8.38082 4.33289 8.57075 4.99763 8.95061 6.32713L11.0494 13.6729C11.4292 15.0024 11.6192 15.6671 11.9476 15.8707C12.232 16.047 12.5856 16.0694 12.8899 15.9305C13.2415 15.7699 13.5138 15.1345 14.0585 13.8636L15.2987 10.9697C15.449 10.619 15.5241 10.4437 15.6452 10.315C15.7522 10.2012 15.8843 10.1141 16.031 10.0605C16.197 10 16.3878 10 16.7693 10H18" stroke="#24181B" stroke-width="1.25" stroke-linecap="round"/>
</g>
</svg>
