<svg width="25" height="24" viewBox="0 0 25 24" fill="none" xmlns="http://www.w3.org/2000/svg">
<circle cx="17.997" cy="10.1" r="2.6" fill="#24181B" stroke="#24181B" stroke-width="1.5"/>
<path fill-rule="evenodd" clip-rule="evenodd" d="M15.3149 19.7516C16.6064 18.4179 16.6405 16.6925 15.4172 15.3432C17.2161 14.4859 19.7519 14.5928 21.3552 15.6636C22.9282 16.7101 22.9282 18.4261 21.3552 19.4791C19.7157 20.5761 17.1138 20.6669 15.3149 19.7516Z" fill="#24181B"/>
<path d="M15.3149 19.7516L14.7761 19.2298C14.6106 19.4008 14.536 19.6403 14.5752 19.8751C14.6144 20.1098 14.7627 20.3121 14.9748 20.42L15.3149 19.7516ZM15.4172 15.3432L15.0946 14.6661C14.8805 14.7681 14.7273 14.9654 14.6814 15.198C14.6355 15.4306 14.7023 15.6712 14.8616 15.8469L15.4172 15.3432ZM21.3552 15.6636L20.9387 16.2873L20.9398 16.288L21.3552 15.6636ZM21.3552 19.4791L21.7723 20.1024L21.7725 20.1024L21.3552 19.4791ZM15.8537 20.2733C16.6117 19.4905 17.0371 18.5514 17.0589 17.5699C17.0807 16.5875 16.6965 15.6377 15.9729 14.8395L14.8616 15.8469C15.3612 16.398 15.5715 16.9855 15.5593 17.5366C15.547 18.0885 15.3096 18.679 14.7761 19.2298L15.8537 20.2733ZM21.7718 15.0399C19.9283 13.8087 17.1091 13.7061 15.0946 14.6661L15.7399 16.0202C17.3231 15.2658 19.5755 15.3768 20.9387 16.2873L21.7718 15.0399ZM21.7725 20.1024C22.7143 19.4719 23.285 18.5679 23.285 17.5689C23.285 16.5694 22.7138 15.6666 21.7707 15.0392L20.9398 16.288C21.5697 16.7071 21.785 17.1855 21.785 17.5689C21.785 17.9528 21.5692 18.4334 20.938 18.8559L21.7725 20.1024ZM14.9748 20.42C16.9973 21.4491 19.8906 21.3615 21.7723 20.1024L20.9382 18.8558C19.5409 19.7907 17.2303 19.8847 15.6551 19.0831L14.9748 20.42Z" fill="#24181B"/>
<circle cx="9.32812" cy="6" r="4" fill="#24181B" stroke="#24181B" stroke-width="1.5"/>
<path d="M4.48541 14.56C2.06541 16.18 2.06541 18.82 4.48541 20.43C7.23541 22.27 11.7454 22.27 14.4954 20.43C16.9154 18.81 16.9154 16.17 14.4954 14.56C11.7554 12.73 7.24541 12.73 4.48541 14.56Z" fill="#24181B" stroke="#F5F3EF" stroke-width="3" stroke-linecap="round" stroke-linejoin="round"/>
<path d="M4.48541 14.56C2.06541 16.18 2.06541 18.82 4.48541 20.43C7.23541 22.27 11.7454 22.27 14.4954 20.43C16.9154 18.81 16.9154 16.17 14.4954 14.56C11.7554 12.73 7.24541 12.73 4.48541 14.56Z" fill="#24181B" stroke="#24181B" stroke-width="1.5" stroke-linecap="round" stroke-linejoin="round"/>
</svg>
