<svg width="301" height="281" viewBox="0 0 301 281" fill="none" xmlns="http://www.w3.org/2000/svg">
<circle cx="225" cy="277" r="4" fill="black"/>
<circle cx="225" cy="277" r="2" fill="white"/>
<circle cx="278.344" cy="277" r="4" fill="black"/>
<circle cx="278.344" cy="277" r="2" fill="white"/>
<path d="M202 266L207 268.659C209.891 270.196 213.116 271 216.39 271H284.61C287.884 271 291.109 270.196 294 268.659L299 266" stroke="#FFC430" stroke-width="4" stroke-linecap="round"/>
<path d="M-14 91.4C-14 77.9587 -14 71.2381 -11.3842 66.1042C-9.0832 61.5883 -5.41166 57.9168 -0.895772 55.6158C4.23811 53 10.9587 53 24.4 53L54.6 53C68.0413 53 74.7619 53 79.8958 55.6158C84.4117 57.9168 88.0832 61.5883 90.3842 66.1042C93 71.2381 93 77.9587 93 91.4L93 282H-14L-14 91.4Z" fill="#0D689C"/>
<path d="M46 81V89" stroke="black" stroke-width="4" stroke-linecap="round"/>
<path d="M62 81V89" stroke="black" stroke-width="4" stroke-linecap="round"/>
<path d="M36 93C36 93 42 102 54 102C66 102 72 93 72 93" stroke="black" stroke-width="4" stroke-linecap="round"/>
<path fill-rule="evenodd" clip-rule="evenodd" d="M168.012 51C173.614 51 178.294 54.9471 179.422 60.2118C183.099 58.2055 187.887 59.2609 190.346 62.7096C192.914 66.3096 191.972 71.1543 188.243 73.5305L186.118 74.8845C188.371 75.1189 190.521 76.2701 191.904 78.2092C194.369 81.6662 193.465 86.3185 189.884 88.6003L186.56 90.7183C188.587 90.8572 190.544 91.8588 191.784 93.5975C193.903 96.5687 193.126 100.567 190.048 102.528L176.31 111.283C175.29 111.933 174.146 112.277 172.994 112.339C170.928 112.609 167.465 112.788 165.001 112.317C163.951 112.215 162.915 111.877 161.983 111.283L148.244 102.528C145.167 100.567 144.389 96.5687 146.509 93.5975C147.749 91.8588 149.706 90.8572 151.732 90.7183L148.409 88.6003C144.828 86.3185 143.923 81.6662 146.389 78.2092C147.773 76.2681 149.926 75.1166 152.181 74.8838L150.057 73.5305C146.328 71.1543 145.387 66.3096 147.954 62.7096C149.97 59.8829 153.55 58.6641 156.801 59.4211C158.208 54.5568 162.694 51 168.012 51Z" fill="#27A83B"/>
<path d="M169.031 67.5413L169.031 154.5" stroke="#2C650D" stroke-width="2" stroke-linecap="round"/>
<path d="M179.349 97.3928L169.172 104.53" stroke="#2C650D" stroke-width="2" stroke-linecap="round"/>
<path d="M179.349 75.6567L169.172 82.7938" stroke="#2C650D" stroke-width="2" stroke-linecap="round"/>
<path d="M158.76 86.0374L168.938 93.1745" stroke="#2C650D" stroke-width="2" stroke-linecap="round"/>
<path d="M141 156.4C141 142.959 141 136.238 143.616 131.104C145.917 126.588 149.588 122.917 154.104 120.616C159.238 118 165.959 118 179.4 118H206.6C220.041 118 226.762 118 231.896 120.616C236.412 122.917 240.083 126.588 242.384 131.104C245 136.238 245 142.959 245 156.4V281H141V156.4Z" fill="#57230D"/>
<path d="M203 141V153.8" stroke="#F5F3EF" stroke-width="4" stroke-linecap="round"/>
<path d="M207 170C207 170 209.833 173 215.5 173C221.167 173 224 170 224 170" stroke="#F5F3EF" stroke-width="4" stroke-linecap="round"/>
<path d="M228.594 141V153.8" stroke="#F5F3EF" stroke-width="4" stroke-linecap="round"/>
<path d="M64 185.4C64 171.959 64 165.238 66.6158 160.104C68.9168 155.588 72.5883 151.917 77.1042 149.616C82.2381 147 88.9587 147 102.4 147H132.86C146.301 147 153.022 147 158.156 149.616C162.672 151.917 166.343 155.588 168.644 160.104C171.26 165.238 171.26 171.959 171.26 185.4V282H64L64 185.4Z" fill="#FE6CB1"/>
<path d="M124 173V185.8" stroke="black" stroke-width="4" stroke-linecap="round"/>
<path d="M128 202C128 202 130.833 205 136.5 205C142.167 205 145 202 145 202" stroke="black" stroke-width="4" stroke-linecap="round"/>
<path d="M149.594 173V185.8" stroke="black" stroke-width="4" stroke-linecap="round"/>
<path fill-rule="evenodd" clip-rule="evenodd" d="M89.9176 158.141C89.0607 156.286 87.1844 155 85.0076 155C82.8282 155 80.95 156.289 80.0945 158.147C78.1755 157.437 75.9345 157.853 74.3929 159.395C72.8532 160.934 72.4364 163.171 73.1427 165.089C71.2874 165.945 70 167.822 70 169.999C70 172.175 71.286 174.051 73.1395 174.908C72.4313 176.826 72.8475 179.065 74.3883 180.606C75.931 182.148 78.174 182.563 80.0939 181.852C80.949 183.71 82.8276 185 85.0076 185C87.1869 185 89.0651 183.711 89.9206 181.853C91.8382 182.56 94.0763 182.143 95.6163 180.603C97.1571 179.063 97.5734 176.823 96.8651 174.905C98.7159 174.047 99.9995 172.173 99.9995 169.999C99.9995 167.823 98.7135 165.947 96.86 165.09C97.5689 163.172 97.1528 160.932 95.6117 159.391C94.0721 157.852 91.8349 157.435 89.9176 158.141Z" fill="white"/>
<ellipse cx="85.0013" cy="170.134" rx="4.5951" ry="4.59456" fill="#FE6CB1"/>
<rect x="18" y="24" width="12" height="29" fill="#E4CAB2"/>
<path d="M5 18.4491C5 8.25994 13.2599 0 23.4491 0H24.5249C34.7141 0 42.974 8.25994 42.974 18.4491C42.974 21.6726 40.3609 24.2857 37.1374 24.2857H10.8366C7.61314 24.2857 5 21.6726 5 18.4491Z" fill="#6CDAD9"/>
<mask id="mask0_2_22457" style="mask-type:alpha" maskUnits="userSpaceOnUse" x="5" y="0" width="38" height="25">
<path d="M5 18.4491C5 8.25994 13.2599 0 23.4491 0H24.5249C34.7141 0 42.974 8.25994 42.974 18.4491V18.4491C42.974 21.6726 40.3609 24.2857 37.1374 24.2857H10.8366C7.61315 24.2857 5 21.6726 5 18.4491V18.4491Z" fill="#D7232C"/>
</mask>
<g mask="url(#mask0_2_22457)">
<circle cx="41" cy="24.999" r="6" fill="#FF6546"/>
<circle cx="12.5" cy="26.499" r="5.5" fill="#FF6546"/>
<circle cx="13.5" cy="10.499" r="3.5" fill="#FF6546"/>
<circle cx="28" cy="-1.00098" r="4" fill="#FF6546"/>
<circle cx="29.1818" cy="14.1808" r="6.18182" fill="#FF6546"/>
</g>
<rect x="47" y="47" width="12" height="6" fill="#E6C8AC"/>
<path d="M34 41.4491C34 31.2599 42.2599 23 52.4491 23H53.5249C63.7141 23 71.974 31.2599 71.974 41.4491C71.974 44.6726 69.3609 47.2857 66.1374 47.2857H39.8366C36.6131 47.2857 34 44.6726 34 41.4491Z" fill="#FFD34C"/>
<mask id="mask1_2_22457" style="mask-type:alpha" maskUnits="userSpaceOnUse" x="34" y="23" width="38" height="25">
<path d="M34 41.4491C34 31.2599 42.2599 23 52.4491 23H53.5249C63.7141 23 71.974 31.2599 71.974 41.4491V41.4491C71.974 44.6726 69.3609 47.2857 66.1374 47.2857H39.8366C36.6131 47.2857 34 44.6726 34 41.4491V41.4491Z" fill="#D7232C"/>
</mask>
<g mask="url(#mask1_2_22457)">
<circle cx="40.6234" cy="48.1683" r="6.62338" fill="#FF6546"/>
<circle cx="59.8282" cy="21.4542" r="5.96104" fill="#FF6546"/>
<circle cx="64.025" cy="39.7786" r="4.41558" fill="#FF6546"/>
<circle cx="47.6818" cy="33.5966" r="6.18182" fill="#FF6546"/>
</g>
</svg>
