<svg width="20" height="20" viewBox="0 0 20 20" fill="none" xmlns="http://www.w3.org/2000/svg">
<g opacity="0.5">
<path d="M11.9572 4.63425L12.5164 5.77371C12.796 6.33345 13.4949 6.85322 14.114 6.97316L14.8729 7.0931C17.1496 7.47293 17.6888 9.15216 16.0512 10.8114L15.3522 11.5111C14.8929 11.9908 14.6333 12.9104 14.7731 13.5501L14.8729 13.9699C15.492 16.7287 14.0341 17.7882 11.6376 16.3488L11.1184 16.049C10.4993 15.6891 9.50073 15.6891 8.88163 16.049L8.36237 16.3488C5.94588 17.8081 4.48801 16.7287 5.12708 13.9699L5.22691 13.5501C5.36671 12.9104 5.10713 11.9908 4.6478 11.5111L3.9488 10.8114C2.31119 9.15216 2.8504 7.47293 5.12708 7.0931L5.88599 6.97316C6.48512 6.87321 7.20405 6.33345 7.48364 5.77371L8.04283 4.63425C9.12126 2.45525 10.8787 2.45525 11.9572 4.63425Z" stroke="#24181B" stroke-width="1.25" stroke-linecap="round" stroke-linejoin="round"/>
</g>
</svg>
