<svg width="20" height="20" viewBox="0 0 20 20" fill="none" xmlns="http://www.w3.org/2000/svg">
<path fill-rule="evenodd" clip-rule="evenodd" d="M10 18C14.4183 18 18 14.4183 18 10C18 5.58172 14.4183 2 10 2C5.58172 2 2 5.58172 2 10C2 14.4183 5.58172 18 10 18ZM13.4367 8.44716C13.6836 8.206 13.6883 7.8103 13.4472 7.56334C13.206 7.31638 12.8103 7.31168 12.5633 7.55284L8.92123 11.1095L7.45378 9.56006C7.21642 9.30944 6.82084 9.2987 6.57022 9.53606C6.31961 9.77342 6.30886 10.169 6.54622 10.4196L8.45007 12.4298C8.56519 12.5513 8.72427 12.6216 8.89165 12.6249C9.05903 12.6281 9.22073 12.5641 9.34051 12.4472L13.4367 8.44716Z" fill="#1E1E1E"/>
</svg>
