<svg width="20" height="20" viewBox="0 0 20 20" fill="none" xmlns="http://www.w3.org/2000/svg">
<path fill-rule="evenodd" clip-rule="evenodd" d="M5.44194 4.55806C5.19786 4.31398 4.80214 4.31398 4.55806 4.55806C4.31398 4.80214 4.31398 5.19786 4.55806 5.44194L9.11599 9.99988L4.55809 14.5578C4.31402 14.8019 4.31402 15.1976 4.55809 15.4417C4.80217 15.6857 5.1979 15.6857 5.44198 15.4417L9.99988 10.8838L14.5578 15.4417C14.8019 15.6857 15.1976 15.6857 15.4417 15.4417C15.6857 15.1976 15.6857 14.8019 15.4417 14.5578L10.8838 9.99988L15.4417 5.44194C15.6858 5.19786 15.6858 4.80214 15.4417 4.55806C15.1976 4.31398 14.8019 4.31398 14.5578 4.55806L9.99988 9.11599L5.44194 4.55806Z" fill="white"/>
</svg>
