<svg width="20" height="20" viewBox="0 0 20 20" fill="none" xmlns="http://www.w3.org/2000/svg">
<path d="M3.5 6H16.5" stroke="#24181B" stroke-width="1.25" stroke-linecap="round"/>
<path d="M5 6L5.60006 13.9208C5.69288 15.146 5.73929 15.7586 5.96054 16.2441C6.29299 16.9736 6.90357 17.5397 7.65608 17.8161C8.15689 18 8.77126 18 10 18V18C11.2287 18 11.8431 18 12.3439 17.8161C13.0964 17.5397 13.707 16.9736 14.0395 16.2441C14.2607 15.7586 14.3071 15.146 14.3999 13.9208L15 6" stroke="#24181B" stroke-width="1.25" stroke-linecap="round"/>
<path d="M12 6V5C12 3.89543 11.1046 3 10 3V3C8.89543 3 8 3.89543 8 5V6" stroke="black" stroke-width="1.245"/>
</svg>
