<svg width="20" height="20" viewBox="0 0 20 20" fill="none" xmlns="http://www.w3.org/2000/svg">
<g opacity="0.5">
<path d="M9.1665 4.16797H10.8332" stroke="#24181B" stroke-width="1.25" stroke-linecap="round" stroke-linejoin="round"/>
<path d="M15.8332 10C15.2773 14.4442 13.889 16.6667 11.6665 16.6667H8.33317C6.11067 16.6667 4.72234 14.4442 4.1665 10" stroke="#24181B" stroke-width="1.25" stroke-linecap="round" stroke-linejoin="round"/>
<path d="M9.1665 13.332C9.1665 13.8879 9.444 14.1654 9.99984 14.1654C10.5557 14.1654 10.8332 13.8879 10.8332 13.332H9.1665Z" stroke="#24181B" stroke-width="1.25" stroke-linecap="round" stroke-linejoin="round"/>
<path d="M10 15V16.6667" stroke="#24181B" stroke-width="1.25" stroke-linecap="round" stroke-linejoin="round"/>
<path d="M8.3335 9.16797V9.1763" stroke="#24181B" stroke-width="1.25" stroke-linecap="round" stroke-linejoin="round"/>
<path d="M11.6665 9.16797V9.1763" stroke="#24181B" stroke-width="1.25" stroke-linecap="round" stroke-linejoin="round"/>
<path d="M4.16676 3.33203L9.16676 4.14036L3.96842 9.7137C3.8224 9.87783 3.61854 9.97911 3.39953 9.99635C3.18052 10.0136 2.96333 9.94546 2.79342 9.8062C2.67819 9.71244 2.59157 9.58823 2.5434 9.4477C2.49523 9.30716 2.48744 9.15594 2.52092 9.0112L4.16676 3.33203Z" stroke="#24181B" stroke-width="1.25" stroke-linecap="round" stroke-linejoin="round"/>
<path d="M15.8335 3.33203L10.8335 4.14036L16.0318 9.7137C16.3302 10.0537 16.856 10.0954 17.2068 9.8062C17.3221 9.71244 17.4087 9.58823 17.4569 9.4477C17.505 9.30716 17.5128 9.15594 17.4793 9.0112L15.8335 3.33203Z" stroke="#24181B" stroke-width="1.25" stroke-linecap="round" stroke-linejoin="round"/>
</g>
</svg>
