<svg width="20" height="20" viewBox="0 0 20 20" fill="none" xmlns="http://www.w3.org/2000/svg">
<path d="M12.1083 7.89258L7.8916 12.1092C7.34994 11.5676 7.0166 10.8259 7.0166 10.0009C7.0166 8.35091 8.34993 7.01758 9.99993 7.01758C10.8249 7.01758 11.5666 7.35091 12.1083 7.89258Z" stroke="#1E1E1E" stroke-width="1.25" stroke-linecap="round" stroke-linejoin="round"/>
<path d="M14.8499 4.80937C13.3915 3.70937 11.7249 3.10938 9.99987 3.10938C7.0582 3.10938 4.31654 4.84271 2.4082 7.84271C1.6582 9.01771 1.6582 10.9927 2.4082 12.1677C3.06654 13.201 3.8332 14.0927 4.66654 14.8094" stroke="#1E1E1E" stroke-width="1.25" stroke-linecap="round" stroke-linejoin="round"/>
<path d="M7.0166 16.2741C7.9666 16.6741 8.97493 16.8908 9.99993 16.8908C12.9416 16.8908 15.6833 15.1574 17.5916 12.1574C18.3416 10.9824 18.3416 9.00742 17.5916 7.83242C17.3166 7.39909 17.0166 6.99076 16.7083 6.60742" stroke="#1E1E1E" stroke-width="1.25" stroke-linecap="round" stroke-linejoin="round"/>
<path d="M7.8915 12.1094L1.6665 18.3344" stroke="#1E1E1E" stroke-width="1.25" stroke-linecap="round" stroke-linejoin="round"/>
<path d="M18.3334 1.66602L12.1084 7.89102" stroke="#1E1E1E" stroke-width="1.25" stroke-linecap="round" stroke-linejoin="round"/>
</svg>
