<svg width="90" height="32" viewBox="0 0 90 32" fill="none" xmlns="http://www.w3.org/2000/svg">
<path d="M23.0178 5.23382C24.4631 5.23382 25.6347 4.06219 25.6347 2.61691C25.6347 1.17163 24.4631 0 23.0178 0C21.5725 0 20.4009 1.17163 20.4009 2.61691C20.4009 4.06219 21.5725 5.23382 23.0178 5.23382Z" fill="#FFF3D6"/>
<path d="M25.7549 23.9244H27.4906L28.0877 20.1422H26.716C25.6994 20.1422 25.1622 19.6162 25.1622 18.6218V7.19531H20.8784V18.7594C20.8784 20.4019 21.2802 21.6871 22.0703 22.5816C22.8583 23.4717 24.0968 23.9222 25.7549 23.9222V23.9244Z" fill="#FFF3D6"/>
<path d="M39.6512 7.19531L35.5627 19.139L33.2166 14.4467C32.6683 13.3281 32.2466 12.165 31.9625 10.9886C31.6851 9.84552 31.674 8.57147 31.9314 7.19753H27.4789C27.3524 7.99881 27.3124 8.80008 27.3568 9.58138C27.4034 10.396 27.6165 11.3571 27.9894 12.4425C28.3645 13.5345 28.986 14.9462 29.8317 16.6397L33.4186 23.92H37.9044L44.3057 7.19531H39.6534H39.6512Z" fill="#FFF3D6"/>
<path d="M47.9044 7.92489C45.6515 9.23001 43.6694 11.8025 43.6694 15.8444C43.6694 17.6512 44.4063 24.3522 51.9241 24.3522C55.2646 24.3522 58.1612 23.0515 59.4996 19.8286L55.8684 18.2949C55.1803 19.853 54.1016 20.7786 51.9952 20.7786C48.6347 20.7786 48.1131 17.7977 48.1131 17.7977C48.1131 17.7977 52.0751 18.0818 54.5499 17.3182C57.3133 16.4637 59.1112 14.6947 59.1112 11.9335C59.1112 10.4863 58.563 9.25221 57.4842 8.26227C55.1514 6.12701 50.326 6.51988 47.9022 7.92267L47.9044 7.92489ZM54.1482 13.4894C53.6576 13.9555 52.8963 14.3129 51.8842 14.5526C50.8143 14.8079 47.9 14.6103 47.9 14.6103C47.9 14.6103 48.1841 12.4218 49.5625 11.2476C51.0696 9.9647 53.318 9.72054 54.3058 10.6483C54.7674 11.0812 55.4533 12.2509 54.146 13.4916L54.1482 13.4894Z" fill="#FFF3D6"/>
<path d="M14.8921 24.3955C13.4116 24.3955 12.0732 24.9792 11.5183 25.2722C10.2176 25.9581 9.11665 26.5662 8.02905 27.1922C6.94144 27.8181 5.79169 28.4085 4.94824 28.2909C4.13808 28.1777 3.80071 27.5007 3.80071 26.9192C3.80071 26.0513 4.8417 25.4831 5.79613 25.0813C6.90815 24.6152 8.95018 23.6586 11.5982 22.5954C13.598 21.7919 15.0718 20.9174 16.2149 19.7676C17.3714 18.6045 18.2259 16.9887 18.2259 14.9799C18.2259 13.3241 17.8153 11.8592 16.9563 10.5718C17.5378 10.5718 18.1127 10.6073 18.641 10.6828L19.2403 6.94719C17.4668 6.6764 14.9942 6.71191 12.8478 7.31342C11.849 6.96272 10.7481 6.78516 9.55613 6.78516C7.03244 6.78516 4.93492 7.57755 3.2791 9.16013C1.62328 10.7449 0.822 12.6826 0.822 14.9755C0.822 16.3006 1.2859 17.6124 2.07829 18.8398C2.89289 20.1005 3.99159 20.9595 5.17464 21.6454C3.28132 22.1137 0.120605 23.4322 0.120605 27.2454C0.120605 30.1287 2.8374 31.9976 5.01483 31.9976C6.19566 31.9976 7.44529 31.789 8.74598 31.1564C10.0112 30.5415 11.0588 29.8335 12.0621 29.2098C12.6902 28.8191 13.6224 28.2354 14.5724 28.2354C15.5224 28.2354 16.2815 28.959 16.2815 30.1287H20.1237C20.1237 26.7638 18.1416 24.3933 14.8898 24.3933L14.8921 24.3955ZM7.7072 11.1422C8.60392 11.1422 9.19212 11.5906 9.53172 11.9857C9.87132 11.5906 10.4595 11.1422 11.3562 11.1422C12.9188 11.1422 13.9709 12.6116 13.9709 13.9833C13.9709 16.76 10.1332 19.0351 9.53172 19.0351C8.93021 19.0351 5.09251 16.7623 5.09251 13.9833C5.09251 12.6116 6.14239 11.1422 7.7072 11.1422Z" fill="#FFF3D6"/>
<path d="M75.2032 6.92695C72.5219 6.51854 68.5067 6.66281 65.9097 8.69597C65.8742 8.66045 64.9864 7.80147 63.7079 6.73828L61.2774 9.63708C61.9744 10.2186 62.8755 11.031 63.2018 11.3462C61.5327 13.5147 60.7358 15.9407 60.7358 18.5732C60.7358 22.0269 62.7446 24.3464 65.7344 24.3464C68.7242 24.3464 70.7218 22.0269 70.7218 18.5732C70.7218 16.0673 70.0071 13.7944 68.4179 11.5459C69.3768 10.5538 72.5264 10.2386 74.6017 10.6625L75.201 6.92695H75.2032ZM65.7344 20.5642C64.518 20.5642 64.2517 18.9638 64.2517 18.4378C64.2517 15.8808 65.5945 14.2494 65.7344 14.0852C65.872 14.2494 67.206 15.8808 67.206 18.4378C67.206 18.9638 66.9396 20.5642 65.7344 20.5642Z" fill="#FFF3D6"/>
<path d="M89.879 6.92695C87.1977 6.51854 83.1824 6.66281 80.5855 8.69597C80.55 8.66045 79.6622 7.80147 78.3837 6.73828L75.9532 9.63708C76.6502 10.2186 77.5513 11.031 77.8776 11.3462C76.2085 13.5147 75.4116 15.9407 75.4116 18.5732C75.4116 22.0269 77.4204 24.3464 80.4102 24.3464C83.4 24.3464 85.3976 22.0269 85.3976 18.5732C85.3976 16.0673 84.6829 13.7944 83.0937 11.5459C84.0525 10.5538 87.2021 10.2386 89.2775 10.6625L89.8768 6.92695H89.879ZM80.4102 20.5642C79.1938 20.5642 78.9275 18.9638 78.9275 18.4378C78.9275 15.8808 80.2703 14.2494 80.4102 14.0852C80.5478 14.2494 81.8818 15.8808 81.8818 18.4378C81.8818 18.9638 81.6154 20.5642 80.4102 20.5642Z" fill="#FFF3D6"/>
</svg>
