<svg width="20" height="20" viewBox="0 0 20 20" fill="none" xmlns="http://www.w3.org/2000/svg">
<path d="M17.5919 10.0116C17.8479 9.19559 17.9999 8.3156 17.9999 7.3636C17.9999 4.89161 16.0079 2.8916 13.5519 2.8916C12.096 2.8916 10.808 3.59564 9.99996 4.68363C9.19196 3.59564 7.89597 2.8916 6.44798 2.8916C3.99199 2.8916 2 4.89161 2 7.3636C2 12.9636 7.18397 16.2676 9.50396 17.0676C9.63996 17.1156 9.81596 17.1395 9.99996 17.1395" stroke="#E60054" stroke-width="1.25" stroke-linecap="round" stroke-linejoin="round"/>
<path d="M14.5917 17.2118C16.0056 17.2118 17.1517 16.0656 17.1517 14.6518C17.1517 13.238 16.0056 12.0918 14.5917 12.0918C13.1779 12.0918 12.0317 13.238 12.0317 14.6518C12.0317 16.0656 13.1779 17.2118 14.5917 17.2118Z" stroke="#E60054" stroke-width="1.25" stroke-linecap="round" stroke-linejoin="round"/>
<path d="M17.632 17.6916L16.832 16.8916" stroke="#E60054" stroke-width="1.25" stroke-linecap="round" stroke-linejoin="round"/>
</svg>
