<svg width="1660" height="140" viewBox="0 0 1660 140" fill="none" xmlns="http://www.w3.org/2000/svg">
<g clip-path="url(#clip0_1_2)">
<rect width="1660" height="140" rx="12" fill="#02370E"/>
<path d="M630.468 198.376C395.998 484.195 -123.798 -139.785 350.586 -137.603C-226.048 -262.529 -165.736 -419.359 422.844 -326.117C10.4569 -489.868 907.364 -848.76 905.779 -519.36C1083.8 -919.361 1309.86 -876.966 1177.55 -468.508C1412.02 -754.327 1931.81 -130.352 1457.43 -132.529C2034.07 -7.60311 1973.71 149.173 1385.04 55.9596C1797.43 219.711 900.527 578.6 902.105 249.203C724.167 649.17 498.252 606.943 630.468 198.376Z" fill="#E60054"/>
<path d="M1626.62 -226.678C1626.62 -226.678 1626.62 -226.679 1626.62 -226.68C1641.38 -240.855 1668.48 -245.887 1691.48 -238.724L1741.1 -223.275C1756.71 -218.414 1774.75 -219.065 1789.55 -225.012L1836.47 -243.878C1858.26 -252.638 1885.93 -249.595 1902.72 -236.591L1939.29 -208.278C1950.67 -199.47 1967.46 -194.983 1984.43 -196.218L2038.62 -200.166C2063.58 -201.986 2086.98 -191.441 2094.72 -174.888L2111.74 -138.447C2116.98 -127.244 2129.64 -118.447 2145.79 -114.794L2198.03 -102.963C2221.82 -97.5725 2236.96 -81.4114 2234.37 -64.1558L2228.64 -25.9539C2226.88 -14.2665 2233.28 -2.69941 2245.86 5.1745L2286.93 30.8836C2305.49 42.5037 2309.84 61.5188 2297.37 76.5536L2269.87 109.71C2261.41 119.906 2260.49 132.289 2267.39 143.031L2289.92 178.105C2300.11 193.971 2292.91 212.615 2272.65 222.844L2228.42 245.161C2214.66 252.11 2206.52 263.204 2206.55 275.009L2206.68 313.175C2206.73 330.61 2189.14 345.675 2164.53 349.281L2111.38 357.073C2094.65 359.523 2080.65 367.399 2073.76 378.237L2051.73 412.856C2041.55 428.848 2016.56 437.678 1991.91 433.993L1938.86 426.061C1922.12 423.561 1904.68 426.801 1891.98 434.766L1851.77 460.018C1833.08 471.75 1805.06 472.766 1784.71 462.443L1740.66 440.098C1726.86 433.102 1709.05 431.138 1692.8 434.807L1641.16 446.476C1617.24 451.881 1591.14 444.93 1578.61 429.811L1551.17 396.718C1542.69 386.482 1527.65 379.693 1510.71 378.444L1456.31 374.445C1431.38 372.608 1411.69 358.957 1409.08 341.684L1403.29 303.501C1401.51 291.807 1391.78 281.402 1377.11 275.502L1329.37 256.319C1307.73 247.619 1297.77 229.644 1305.47 213.149L1322.49 176.651C1327.7 165.468 1324.9 153.238 1314.95 143.725L1282.41 112.63C1267.73 98.5828 1269.17 79.3415 1285.89 66.4291L1322.6 38.0802C1333.95 29.3121 1338.56 17.3141 1335.01 5.79867L1323.46 -31.66C1318.21 -48.6744 1330.88 -65.9114 1353.81 -72.9934L1403.59 -88.3528C1419.18 -93.1637 1430.49 -102.868 1433.98 -114.44L1445.22 -151.629C1450.39 -168.713 1472.15 -180.942 1497.35 -180.901L1551.59 -180.822C1568.71 -180.796 1584.79 -186.487 1594.8 -196.108L1626.62 -226.676C1626.62 -226.677 1626.62 -226.678 1626.62 -226.678V-226.678Z" fill="#FFC430"/>
<path fill-rule="evenodd" clip-rule="evenodd" d="M-110.951 312.733C-194.901 408.005 -372.687 438.794 -508.045 381.502C-424.106 286.243 -246.36 255.45 -111.011 312.707C-246.321 255.405 -287.972 131.749 -204.033 36.4905C-287.984 131.763 -465.769 162.552 -601.127 105.26C-517.177 9.98764 -339.391 -20.8015 -204.033 36.4905C-339.391 -20.8015 -381.066 -144.48 -297.115 -239.752C-161.779 -182.469 -120.097 -58.8244 -203.99 36.4416C-120.021 -58.7923 57.7246 -89.5614 193.061 -32.2787C57.7024 -89.5707 16.028 -213.249 99.9784 -308.521C235.337 -251.229 277.011 -127.551 193.061 -32.2787C328.419 25.0133 370.093 148.691 286.143 243.964C370.093 148.691 547.878 117.902 683.237 175.194C599.286 270.467 421.501 301.256 286.143 243.964C202.192 339.236 24.4071 370.025 -110.951 312.733ZM-17.8688 588.975C-153.227 531.683 -194.901 408.005 -110.951 312.733C24.4071 370.025 66.0816 493.703 -17.8688 588.975ZM590.154 -101.048C454.796 -158.34 277.011 -127.551 193.061 -32.2787C328.419 25.0133 506.204 -5.7758 590.154 -101.048ZM379.225 520.206C463.175 424.934 421.501 301.256 286.143 243.964C202.192 339.236 243.867 462.914 379.225 520.206Z" fill="#0B4B6F"/>
<path fill-rule="evenodd" clip-rule="evenodd" d="M-110.951 312.733C-194.901 408.005 -372.687 438.794 -508.045 381.502C-424.106 286.243 -246.36 255.45 -111.011 312.707C-246.321 255.405 -287.972 131.749 -204.033 36.4905C-287.984 131.763 -465.769 162.552 -601.127 105.26C-517.177 9.98764 -339.391 -20.8015 -204.033 36.4905C-339.391 -20.8015 -381.066 -144.48 -297.115 -239.752C-161.779 -182.469 -120.097 -58.8244 -203.99 36.4416C-120.021 -58.7923 57.7246 -89.5614 193.061 -32.2787C57.7024 -89.5707 16.028 -213.249 99.9784 -308.521C235.337 -251.229 277.011 -127.551 193.061 -32.2787C328.419 25.0133 370.093 148.691 286.143 243.964C370.093 148.691 547.878 117.902 683.237 175.194C599.286 270.467 421.501 301.256 286.143 243.964C202.192 339.236 24.4071 370.025 -110.951 312.733ZM-17.8688 588.975C-153.227 531.683 -194.901 408.005 -110.951 312.733C24.4071 370.025 66.0816 493.703 -17.8688 588.975ZM590.154 -101.048C454.796 -158.34 277.011 -127.551 193.061 -32.2787C328.419 25.0133 506.204 -5.7758 590.154 -101.048ZM379.225 520.206C463.175 424.934 421.501 301.256 286.143 243.964C202.192 339.236 243.867 462.914 379.225 520.206Z" fill="#0B4B6F"/>
<ellipse cx="138.441" cy="119.079" rx="196" ry="154" transform="rotate(10.828 138.441 119.079)" fill="#0B4B6F"/>
</g>
<defs>
<clipPath id="clip0_1_2">
<rect width="1660" height="140" rx="12" fill="white"/>
</clipPath>
</defs>
</svg>
