<svg width="361" height="664" viewBox="0 0 361 664" fill="none" xmlns="http://www.w3.org/2000/svg">
<g clip-path="url(#clip0_910_27749)">
<rect x="-551" y="-54" width="1461.27" height="750" rx="10.5634" fill="#0B4B6F"/>
<path d="M313.757 817.037C107.358 1180.06 -350.209 387.533 67.3825 390.303C-440.218 231.633 -387.127 32.4393 130.99 150.869C-232.027 -57.1152 557.504 -512.951 556.109 -94.574C712.819 -602.623 911.811 -548.777 795.344 -29.9851C1001.74 -393.01 1459.31 399.514 1041.72 396.749C1549.32 555.419 1496.19 754.543 977.993 636.152C1341.01 844.135 551.485 1299.97 552.874 881.594C396.238 1389.6 197.37 1335.97 313.757 817.037Z" fill="#E60054"/>
<path d="M563.352 -514.891C565.028 -524.37 578.857 -524.37 580.495 -514.891L598.819 -410.255C600.267 -401.9 611.81 -400.477 615.353 -408.194L659.506 -505.038C663.506 -513.842 676.916 -510.433 676.116 -500.842L667.468 -395.007C666.782 -386.578 677.602 -382.344 682.935 -388.975L750.136 -471.958C756.231 -479.488 768.346 -472.932 765.184 -463.828L730.097 -363.462C727.316 -355.445 736.726 -348.739 743.583 -353.834L829.642 -417.747C837.451 -423.554 847.547 -414.226 842.137 -406.171L782.822 -317.532C778.098 -310.451 785.489 -301.647 793.451 -304.906L892.919 -345.704C901.947 -349.413 909.376 -337.912 902.1 -331.431L822.289 -260.137C815.927 -254.443 820.88 -244.065 829.375 -245.301L936.005 -260.474C945.681 -261.86 949.948 -248.898 941.3 -244.402L845.985 -194.913C838.404 -190.979 840.575 -179.702 849.109 -178.803L956.234 -167.339C965.948 -166.29 966.825 -152.691 957.301 -150.48L852.499 -125.904C844.156 -123.956 843.394 -112.492 851.471 -109.532L952.348 -72.181C961.491 -68.8092 958.901 -55.3972 949.148 -55.5845L841.413 -57.4577C832.842 -57.6075 829.223 -46.7055 836.27 -41.8352L924.538 19.0435C932.538 24.5507 926.672 36.9138 917.224 34.3288L813.337 6.11847C805.07 3.87067 798.822 13.5364 804.422 19.9802L874.557 100.565C880.919 107.87 872.118 118.36 863.623 113.602L770.136 60.8157C762.669 56.6198 754.212 64.4497 757.984 72.0549L805.565 167.325C809.87 175.98 798.708 183.959 791.698 177.253L714.44 103.225C708.269 97.3055 698.097 102.85 699.849 111.13L721.907 215.054C723.888 224.495 711.05 229.515 705.945 221.273L649.83 130.648C645.334 123.418 634.096 126.265 633.715 134.732L628.839 240.792C628.382 250.42 614.667 252.106 611.81 242.927L580.305 141.4C577.791 133.308 566.171 133.308 563.657 141.4L532.152 242.927C529.295 252.144 515.58 250.42 515.123 240.792L510.247 134.732C509.866 126.265 498.59 123.418 494.132 130.648L438.017 221.273C432.912 229.478 420.074 224.495 422.055 215.054L444.113 111.13C445.865 102.85 435.693 97.3055 429.522 103.225L352.302 177.253C345.292 183.959 334.092 175.942 338.435 167.325L386.016 72.0549C389.826 64.4497 381.331 56.6198 373.864 60.8157L280.377 113.602C271.882 118.398 263.081 107.908 269.443 100.565L339.578 19.9802C345.178 13.5364 338.93 3.87067 330.663 6.11847L226.776 34.3288C217.367 36.8763 211.462 24.5507 219.462 19.0435L307.73 -41.8352C314.777 -46.7055 311.158 -57.6075 302.587 -57.4577L194.852 -55.5845C185.061 -55.4346 182.471 -68.8092 191.652 -72.181L292.529 -109.532C300.568 -112.492 299.844 -123.956 291.501 -125.904L186.699 -150.48C177.175 -152.728 178.052 -166.328 187.766 -167.339L294.891 -178.803C303.425 -179.702 305.596 -190.979 298.015 -194.913L202.7 -244.402C194.052 -248.898 198.319 -261.86 207.995 -260.474L314.625 -245.301C323.12 -244.103 328.073 -254.48 321.711 -260.137L241.9 -331.431C234.662 -337.912 242.053 -349.413 251.081 -345.704L350.549 -304.906C358.473 -301.647 365.902 -310.488 361.178 -317.532L301.863 -406.171C296.491 -414.226 306.549 -423.554 314.358 -417.747L400.417 -353.834C407.274 -348.739 416.684 -355.483 413.903 -363.462L378.816 -463.828C375.616 -472.932 387.769 -479.488 393.864 -471.958L461.065 -388.975C466.437 -382.344 477.256 -386.578 476.532 -395.007L467.884 -500.842C467.084 -510.433 480.494 -513.842 484.494 -505.038L528.647 -408.194C532.152 -400.477 543.695 -401.9 545.181 -410.255L563.505 -514.891H563.352Z" fill="#FF532D"/>
<path d="M608.397 204.745C608.396 204.746 608.395 204.744 608.396 204.743C621.391 186.739 645.249 180.347 665.497 189.445L709.169 209.067C722.917 215.241 738.79 214.415 751.819 206.861L793.123 182.899C812.303 171.773 836.661 175.637 851.447 192.155L883.634 228.115C893.653 239.303 908.435 245.002 923.369 243.433L971.071 238.418C993.05 236.107 1013.65 249.501 1020.46 270.525L1035.44 316.81C1040.05 331.038 1051.2 342.211 1065.42 346.852L1111.4 361.878C1132.35 368.725 1145.67 389.251 1143.39 411.168L1138.34 459.689C1136.79 474.533 1142.43 489.225 1153.5 499.226L1189.66 531.879C1206 546.638 1209.83 570.79 1198.85 589.886L1174.64 631.998C1167.19 644.949 1166.38 660.677 1172.46 674.32L1192.29 718.869C1201.26 739.02 1194.92 762.7 1177.09 775.692L1138.15 804.037C1126.04 812.864 1118.88 826.954 1118.9 841.949L1119.01 890.424C1119.06 912.568 1103.58 931.702 1081.91 936.283L1035.13 946.179C1020.4 949.291 1008.08 959.295 1002.01 973.061L982.611 1017.03C973.653 1037.34 951.651 1048.56 929.953 1043.88L883.257 1033.8C868.523 1030.63 853.166 1034.74 841.993 1044.86L806.591 1076.93C790.14 1091.83 765.478 1093.12 747.564 1080.01L708.782 1051.63C696.636 1042.75 680.963 1040.25 666.658 1044.91L621.195 1059.73C600.142 1066.6 577.165 1057.77 566.136 1038.57L541.984 996.534C534.517 983.533 521.273 974.91 506.367 973.323L458.474 968.244C436.531 965.911 419.202 948.572 416.902 926.634L411.803 878.137C410.24 863.284 401.674 850.068 388.756 842.574L346.732 818.21C327.685 807.159 318.92 784.33 325.694 763.378L340.674 717.022C345.265 702.817 342.797 687.284 334.041 675.201L305.4 635.707C292.469 617.866 293.745 593.427 308.459 577.027L340.771 541.02C350.764 529.883 354.823 514.645 351.7 500.019L341.536 452.441C336.914 430.831 348.064 408.938 368.252 399.943L412.071 380.435C425.796 374.324 435.748 361.998 438.824 347.301L448.718 300.066C453.265 278.368 472.425 262.835 494.6 262.888L542.352 262.988C557.421 263.02 571.579 255.793 580.391 243.573L608.399 204.747C608.399 204.746 608.398 204.745 608.397 204.745Z" fill="#FFC430"/>
<path fill-rule="evenodd" clip-rule="evenodd" d="M-42.8218 912.804C-5.76368 976.991 -26.9585 1058.61 -90.1616 1095.1C-127.215 1030.92 -106.031 949.318 -42.8498 912.821C-106.048 949.288 -187.308 926.834 -224.361 862.656C-187.303 926.843 -208.498 1008.46 -271.701 1044.95C-308.759 980.761 -287.564 899.146 -224.361 862.656C-287.564 899.146 -368.842 876.694 -405.9 812.508C-342.707 776.023 -261.447 798.462 -224.38 862.623C-261.412 798.441 -240.214 716.849 -177.021 680.364C-240.224 716.855 -321.502 694.402 -358.56 630.216C-295.357 593.726 -214.079 616.178 -177.021 680.364C-113.818 643.874 -32.54 666.326 4.51812 730.513C-32.54 666.326 -11.3451 584.711 51.858 548.221C88.9161 612.407 67.7212 694.022 4.51812 730.513C41.5762 794.699 20.3814 876.314 -42.8218 912.804ZM138.718 962.953C75.5144 999.443 -5.76368 976.991 -42.8218 912.804C20.3814 876.314 101.659 898.766 138.718 962.953ZM-129.681 498.073C-192.884 534.563 -214.079 616.178 -177.021 680.364C-113.818 643.874 -92.6232 562.259 -129.681 498.073ZM186.057 780.661C148.999 716.475 67.7212 694.022 4.51812 730.513C41.5762 794.699 122.854 817.151 186.057 780.661Z" fill="#ADE0F1"/>
</g>
<defs>
<clipPath id="clip0_910_27749">
<rect x="-551" y="-54" width="1461.27" height="750" rx="10.5634" fill="white"/>
</clipPath>
</defs>
</svg>
