<svg width="24" height="24" viewBox="0 0 24 24" fill="none" xmlns="http://www.w3.org/2000/svg">
<path d="M11.999 3.79598C14.6725 3.79598 14.9891 3.8077 16.0405 3.85461C17.0176 3.8976 17.5452 4.06176 17.897 4.19856C18.3621 4.37835 18.6983 4.59723 19.0461 4.94509C19.3979 5.29686 19.6129 5.62908 19.7927 6.0942C19.9295 6.44597 20.0936 6.97753 20.1366 7.95076C20.1835 9.00606 20.1952 9.32265 20.1952 11.9922C20.1952 14.6656 20.1835 14.9822 20.1366 16.0336C20.0936 17.0108 19.9295 17.5384 19.7927 17.8902C19.6129 18.3553 19.394 18.6914 19.0461 19.0393C18.6944 19.3911 18.3621 19.606 17.897 19.7858C17.5452 19.9226 17.0137 20.0868 16.0405 20.1298C14.9852 20.1767 14.6686 20.1884 11.999 20.1884C9.32559 20.1884 9.00899 20.1767 7.9576 20.1298C6.98046 20.0868 6.45281 19.9226 6.10104 19.7858C5.63592 19.606 5.29979 19.3871 4.95193 19.0393C4.60016 18.6875 4.38519 18.3553 4.2054 17.8902C4.0686 17.5384 3.90444 17.0068 3.86145 16.0336C3.81454 14.9783 3.80282 14.6617 3.80282 11.9922C3.80282 9.31874 3.81454 9.00215 3.86145 7.95076C3.90444 6.97362 4.0686 6.44597 4.2054 6.0942C4.38519 5.62908 4.60407 5.29295 4.95193 4.94509C5.3037 4.59332 5.63592 4.37835 6.10104 4.19856C6.45281 4.06176 6.98437 3.8976 7.9576 3.85461C9.00899 3.8077 9.32559 3.79598 11.999 3.79598ZM11.999 1.99414C9.28259 1.99414 8.94255 2.00587 7.87552 2.05277C6.81239 2.09967 6.0815 2.27165 5.44831 2.51788C4.78777 2.77585 4.22885 3.11589 3.67384 3.67481C3.11492 4.22983 2.77487 4.78875 2.51691 5.44538C2.27067 6.08247 2.09869 6.80946 2.05179 7.87258C2.00489 8.94352 1.99316 9.28357 1.99316 12C1.99316 14.7164 2.00489 15.0565 2.05179 16.1235C2.09869 17.1866 2.27067 17.9175 2.51691 18.5507C2.77487 19.2113 3.11492 19.7702 3.67384 20.3252C4.22885 20.8802 4.78777 21.2242 5.44441 21.4782C6.0815 21.7244 6.80849 21.8964 7.87161 21.9433C8.93864 21.9902 9.27868 22.002 11.9951 22.002C14.7116 22.002 15.0516 21.9902 16.1186 21.9433C17.1818 21.8964 17.9126 21.7244 18.5458 21.4782C19.2025 21.2242 19.7614 20.8802 20.3164 20.3252C20.8714 19.7702 21.2154 19.2113 21.4694 18.5546C21.7157 17.9175 21.8876 17.1905 21.9345 16.1274C21.9814 15.0604 21.9932 14.7203 21.9932 12.0039C21.9932 9.28748 21.9814 8.94743 21.9345 7.8804C21.8876 6.81728 21.7157 6.08638 21.4694 5.4532C21.2232 4.78875 20.8831 4.22983 20.3242 3.67481C19.7692 3.1198 19.2103 2.77585 18.5536 2.52179C17.9166 2.27556 17.1896 2.10358 16.1264 2.05668C15.0555 2.00587 14.7155 1.99414 11.999 1.99414Z" fill="#FFF3D6"/>
<path d="M11.9991 6.86035C9.16151 6.86035 6.85938 9.16248 6.85938 12.0001C6.85938 14.8377 9.16151 17.1398 11.9991 17.1398C14.8367 17.1398 17.1388 14.8377 17.1388 12.0001C17.1388 9.16248 14.8367 6.86035 11.9991 6.86035ZM11.9991 15.3341C10.1582 15.3341 8.66512 13.841 8.66512 12.0001C8.66512 10.1592 10.1582 8.6661 11.9991 8.6661C13.84 8.6661 15.3331 10.1592 15.3331 12.0001C15.3331 13.841 13.84 15.3341 11.9991 15.3341Z" fill="#FFF3D6"/>
<path d="M18.5419 6.65695C18.5419 7.32141 18.0026 7.85688 17.342 7.85688C16.6776 7.85688 16.1421 7.3175 16.1421 6.65695C16.1421 5.9925 16.6815 5.45703 17.342 5.45703C18.0026 5.45703 18.5419 5.99641 18.5419 6.65695Z" fill="#FFF3D6"/>
</svg>
