<svg width="24" height="24" viewBox="0 0 24 24" fill="none" xmlns="http://www.w3.org/2000/svg">
<g clip-path="url(#clip0_1559_1594)">
<path fill-rule="evenodd" clip-rule="evenodd" d="M11.9727 0H12.0273C18.6397 0 24 5.36035 24 11.9727V12.0273C24 18.6397 18.6397 24 12.0273 24H11.9727C5.36035 24 0 18.6397 0 12.0273V11.9727C0 5.36035 5.36035 0 11.9727 0ZM8.87159 6.00406H15.1299C16.8588 6.00406 18.2654 7.41103 18.2654 9.1405V14.8676C18.2654 16.5971 16.8588 18.0041 15.1299 18.0041H8.87159C7.14262 18.0041 5.73607 16.5971 5.73607 14.8676V9.1405C5.73607 7.41103 7.14262 6.00406 8.87159 6.00406ZM8.87159 7.11049C7.75272 7.11049 6.84218 8.0213 6.84218 9.1405V14.8676C6.84218 15.9868 7.75272 16.8976 8.87159 16.8976H15.1299C16.2487 16.8976 17.1593 15.9868 17.1593 14.8676V9.1405C17.1593 8.0213 16.2487 7.11049 15.1299 7.11049H8.87159ZM14.9176 12.0032C14.9176 13.6122 13.6089 14.9206 12.0011 14.9206C10.3926 14.9206 9.08451 13.6122 9.08451 12.0032C9.08451 10.3942 10.3926 9.0858 12.0011 9.0858C13.6096 9.0858 14.9176 10.3942 14.9176 12.0032ZM13.8115 12.0039C13.8115 11.0052 12.9995 10.1929 12.0011 10.1929C11.0027 10.1929 10.1906 11.0052 10.1906 12.0039C10.1906 13.0026 11.0027 13.8149 12.0011 13.8149C12.9995 13.8149 13.8115 13.0026 13.8115 12.0039ZM15.1876 9.5572C15.6205 9.5572 15.9734 9.20492 15.9734 8.77114C15.9734 8.33735 15.6212 7.98507 15.1876 7.98507C14.7539 7.98507 14.4017 8.33735 14.4017 8.77114C14.4017 9.20492 14.7539 9.5572 15.1876 9.5572Z" fill="#FFF3D6"/>
</g>
<defs>
<clipPath id="clip0_1559_1594">
<rect width="24" height="24" fill="white"/>
</clipPath>
</defs>
</svg>
