<svg width="143" height="128" viewBox="0 0 143 128" fill="none" xmlns="http://www.w3.org/2000/svg">
<path d="M37 41.7C37 34.9794 37 31.6191 38.3079 29.0521C39.4584 26.7942 41.2942 24.9584 43.5521 23.8079C46.1191 22.5 49.4794 22.5 56.2 22.5L84.8 22.5C91.5206 22.5 94.8809 22.5 97.4479 23.8079C99.7058 24.9584 101.542 26.7942 102.692 29.0521C104 31.6191 104 34.9794 104 41.7V128H37L37 41.7Z" fill="#5B39E3"/>
<path d="M75.502 37.5V43.9" stroke="#F5F3EF" stroke-width="2" stroke-linecap="round"/>
<path d="M77.502 52C77.502 52 78.9186 53.5 81.752 53.5C84.5853 53.5 86.002 52 86.002 52" stroke="#F5F3EF" stroke-width="2" stroke-linecap="round"/>
<path d="M88.2988 37.5V43.9" stroke="#F5F3EF" stroke-width="2" stroke-linecap="round"/>
<path d="M77.5 95.6C77.5 86.6392 77.5 82.1587 79.2439 78.7362C80.7779 75.7256 83.2256 73.2779 86.2362 71.7439C89.6587 70 94.1392 70 103.1 70H116.9C125.861 70 130.341 70 133.764 71.7439C136.774 73.2779 139.222 75.7256 140.756 78.7362C142.5 82.1587 142.5 86.6392 142.5 95.6V128H77.5V95.6Z" fill="#FF532D"/>
<path d="M116.5 83V87" stroke="black" stroke-width="2" stroke-linecap="round"/>
<path d="M124.5 83V87" stroke="black" stroke-width="2" stroke-linecap="round"/>
<path d="M111.5 89C111.5 89 114.5 93.5 120.5 93.5C126.5 93.5 129.5 89 129.5 89" stroke="black" stroke-width="2" stroke-linecap="round"/>
<path d="M-16.5 19.7C-16.5 12.9794 -16.5 9.61905 -15.1921 7.05211C-14.0416 4.79417 -12.2058 2.9584 -9.94789 1.80792C-7.38095 0.5 -4.02063 0.5 2.7 0.5L32.8 0.5C39.5206 0.5 42.8809 0.5 45.4479 1.80792C47.7058 2.9584 49.5416 4.79417 50.6921 7.05211C52 9.61905 52 12.9794 52 19.7V128H-16.5L-16.5 19.7Z" fill="#FFC430"/>
<path d="M13.5 27.5C13.5 27.5 18.4167 34.5 28.25 34.5C38.0833 34.5 43 27.5 43 27.5" stroke="black" stroke-width="2" stroke-linecap="round"/>
<path d="M37 22.5C37 22.5 36.1667 22 34.5 22C32.8333 22 32 22.5 32 22.5" stroke="black" stroke-width="2" stroke-linecap="round"/>
<path d="M25 22.5C25 22.5 24.1667 22 22.5 22C20.8333 22 20 22.5 20 22.5" stroke="black" stroke-width="2" stroke-linecap="round"/>
</svg>
