<svg width="24" height="24" viewBox="0 0 24 24" fill="none" xmlns="http://www.w3.org/2000/svg">
<path fill-rule="evenodd" clip-rule="evenodd" d="M2.17797 8.58192V22.1262H6.48177V8.58192H2.17797ZM1.9248 4.27811C1.9248 5.67052 2.93747 6.68318 4.32987 6.68318C5.72227 6.68318 6.73493 5.67052 6.73493 4.27811C6.73493 2.88571 5.72227 1.87305 4.32987 1.87305C3.06405 1.87305 1.9248 2.88571 1.9248 4.27811ZM17.8742 22.1262H21.9248V13.7718C21.9248 9.59457 19.3932 8.20217 16.9881 8.20217C14.8362 8.20217 13.3172 9.59457 12.9375 10.4807V8.58192H8.88683V22.1262H13.1906V14.911C13.1906 13.0123 14.4564 11.9996 15.7223 11.9996C16.9881 11.9996 17.8742 12.6326 17.8742 14.7844V22.1262Z" fill="#FFF3D6"/>
</svg>
