<svg width="24" height="24" viewBox="0 0 24 24" fill="none" xmlns="http://www.w3.org/2000/svg">
<path fill-rule="evenodd" clip-rule="evenodd" d="M11.9727 0H12.0273C18.6396 0 24 5.36035 24 11.9727V12.0273C24 18.6397 18.6396 24 12.0273 24H11.9727C5.36036 24 0 18.6397 0 12.0273V11.9727C0 5.36035 5.36036 0 11.9727 0ZM6.63924 17.5V10.1438H9.00633V17.5H6.63924ZM7.82279 9.1125C7.05696 9.1125 6.5 8.5625 6.5 7.80625C6.5 7.05 7.12658 6.5 7.82279 6.5C8.58861 6.5 9.14557 7.05 9.14557 7.80625C9.14557 8.5625 8.58861 9.1125 7.82279 9.1125ZM17.5 17.5H15.2722V13.5125C15.2722 12.3438 14.7848 12 14.0886 12C13.3924 12 12.6962 12.55 12.6962 13.5813V17.5H10.3291V10.1438H12.557V11.175C12.7658 10.6937 13.6013 9.9375 14.7848 9.9375C16.1076 9.9375 17.5 10.6937 17.5 12.9625V17.5Z" fill="#FFF3D6"/>
</svg>
