<svg width="295" height="255" viewBox="0 0 295 255" fill="none" xmlns="http://www.w3.org/2000/svg">
<path d="M84 82.4C84 68.9587 84 62.2381 86.6158 57.1042C88.9168 52.5883 92.5883 48.9168 97.1042 46.6158C102.238 44 108.959 44 122.4 44L179.6 44C193.041 44 199.762 44 204.896 46.6158C209.412 48.9168 213.083 52.5883 215.384 57.1042C218 62.2381 218 68.9587 218 82.4V255H84L84 82.4Z" fill="#5B39E3"/>
<path d="M166 103C166 103 169.167 106 175.5 106C181.833 106 185 103 185 103" stroke="#F5F3EF" stroke-width="4" stroke-linecap="round"/>
<path d="M181 80C181 80 183.667 81 189 81C194.333 81 197 80 197 80" stroke="#F5F3EF" stroke-width="4" stroke-linecap="round"/>
<path d="M150 80C150 80 152.667 81 158 81C163.333 81 166 80 166 80" stroke="#F5F3EF" stroke-width="4" stroke-linecap="round"/>
<path d="M165 190.2C165 172.278 165 163.317 168.488 156.472C171.556 150.451 176.451 145.556 182.472 142.488C189.317 139 198.278 139 216.2 139H243.8C261.722 139 270.683 139 277.528 142.488C283.549 145.556 288.444 150.451 291.512 156.472C295 163.317 295 172.278 295 190.2V255H165V190.2Z" fill="#FF532D"/>
<path d="M258 167C258 167 259.667 168 263 168C266.333 168 268 167 268 167" stroke="black" stroke-width="4" stroke-linecap="round"/>
<path d="M235 168C235 168 236.667 169 240 169C243.333 169 245 168 245 168" stroke="black" stroke-width="4" stroke-linecap="round"/>
<path d="M232 179C232 179 238.167 184 250.5 184C262.833 184 269 179 269 179" stroke="black" stroke-width="4" stroke-linecap="round"/>
<path d="M-23 38.4C-23 24.9587 -23 18.2381 -20.3842 13.1042C-18.0832 8.58834 -14.4117 4.9168 -9.89577 2.61584C-4.76189 0 1.95874 0 15.4 0L75.6 0C89.0413 0 95.7619 0 100.896 2.61584C105.412 4.9168 109.083 8.58834 111.384 13.1042C114 18.2381 114 24.9587 114 38.4V255H-23L-23 38.4Z" fill="#FFC430"/>
<path d="M49 57C49 57 54.8333 61 66.5 61C78.1667 61 84 57 84 57" stroke="black" stroke-width="4" stroke-linecap="round"/>
<path d="M73 44C73 44 74.6667 45 78 45C81.3333 45 83 44 83 44" stroke="black" stroke-width="4" stroke-linecap="round"/>
<path d="M50 44C50 44 51.6667 45 55 45C58.3333 45 60 44 60 44" stroke="black" stroke-width="4" stroke-linecap="round"/>
</svg>
