<svg width="278" height="255" viewBox="0 0 278 255" fill="none" xmlns="http://www.w3.org/2000/svg">
<path d="M0 177.4C0 163.959 0 157.238 2.61584 152.104C4.9168 147.588 8.58834 143.917 13.1042 141.616C18.2381 139 24.9587 139 38.4 139H92.6C106.041 139 112.762 139 117.896 141.616C122.412 143.917 126.083 147.588 128.384 152.104C131 157.238 131 163.959 131 177.4V255H0L0 177.4Z" fill="#57230D"/>
<path d="M39 169L39 175" stroke="#F5F3EF" stroke-width="4" stroke-linecap="round"/>
<path d="M65 171C65 171 63.1667 169 59.5 169C55.8333 169 54 171 54 171" stroke="#F5F3EF" stroke-width="4" stroke-linecap="round"/>
<path d="M30 184C30 184 36.6667 196 50 196C63.3333 196 70 184 70 184" stroke="#F5F3EF" stroke-width="4" stroke-linecap="round"/>
<path d="M171 38.4C171 24.9587 171 18.2381 173.616 13.1042C175.917 8.58834 179.588 4.9168 184.104 2.61584C189.238 0 195.959 0 209.4 0L320.428 0C333.869 0 340.59 0 345.724 2.61584C350.24 4.9168 353.911 8.58834 356.212 13.1042C358.828 18.2381 358.828 24.9587 358.828 38.4V255.081H171V38.4Z" fill="#76D543"/>
<path d="M201 40.333C201 40.333 208.75 38.6108 208.75 35.1663C208.75 31.7219 201 29.9997 201 29.9997" stroke="black" stroke-width="4" stroke-linecap="round"/>
<path d="M232 30C232 30 224.25 31.7222 224.25 35.1667C224.25 38.6111 232 40.3333 232 40.3333" stroke="black" stroke-width="4" stroke-linecap="round"/>
<path d="M203.586 50.6667C203.586 50.6667 207.891 61 216.503 61C225.114 61 229.419 50.6667 229.419 50.6667" stroke="black" stroke-width="4" stroke-linecap="round"/>
<path d="M106 131.4C106 117.959 106 111.238 108.616 106.104C110.917 101.588 114.588 97.9168 119.104 95.6158C124.238 93 130.959 93 144.4 93H185.6C199.041 93 205.762 93 210.896 95.6158C215.412 97.9168 219.083 101.588 221.384 106.104C224 111.238 224 117.959 224 131.4V255H106L106 131.4Z" fill="#88E5F9"/>
<path d="M150.5 123.167C150.5 123.167 148.333 121 144 121C139.667 121 137.5 123.167 137.5 123.167" stroke="black" stroke-width="4" stroke-linecap="round"/>
<path d="M176.5 123.167C176.5 123.167 174.333 121 170 121C165.667 121 163.5 123.167 163.5 123.167" stroke="black" stroke-width="4" stroke-linecap="round"/>
<path d="M131 133.278C131 133.278 139.667 147.723 157 147.723C174.333 147.723 183 133.278 183 133.278" stroke="black" stroke-width="4" stroke-linecap="round"/>
</svg>
