<svg width="278" height="255" viewBox="0 0 278 255" fill="none" xmlns="http://www.w3.org/2000/svg">
<path d="M0 177.4C0 163.959 0 157.238 2.61584 152.104C4.9168 147.588 8.58834 143.917 13.1042 141.616C18.2381 139 24.9587 139 38.4 139H92.6C106.041 139 112.762 139 117.896 141.616C122.412 143.917 126.083 147.588 128.384 152.104C131 157.238 131 163.959 131 177.4V255H0L0 177.4Z" fill="#57230D"/>
<path d="M30 185C30 185 36.6667 193 50 193C63.3333 193 70 185 70 185" stroke="#F5F3EF" stroke-width="4" stroke-linecap="round"/>
<path d="M56 170C56 170 57.6667 172 61 172C64.3333 172 66 170 66 170" stroke="#F5F3EF" stroke-width="4" stroke-linecap="round"/>
<path d="M34 170C34 170 35.6667 172 39 172C42.3333 172 44 170 44 170" stroke="#F5F3EF" stroke-width="4" stroke-linecap="round"/>
<path d="M171 38.4C171 24.9587 171 18.2381 173.616 13.1042C175.917 8.58834 179.588 4.9168 184.104 2.61584C189.238 0 195.959 0 209.4 0L320.428 0C333.869 0 340.59 0 345.724 2.61584C350.24 4.9168 353.911 8.58834 356.212 13.1042C358.828 18.2381 358.828 24.9587 358.828 38.4V255.081H171V38.4Z" fill="#76D543"/>
<path d="M224 36C224 36 225.667 41 229 41C232.333 41 234 36 234 36" stroke="black" stroke-width="4" stroke-linecap="round"/>
<path d="M199 36C199 36 200.667 41 204 41C207.333 41 209 36 209 36" stroke="black" stroke-width="4" stroke-linecap="round"/>
<path d="M209 55C209 55 211.5 57 216.5 57C221.5 57 224 55 224 55" stroke="black" stroke-width="4" stroke-linecap="round"/>
<path d="M106 131.4C106 117.959 106 111.238 108.616 106.104C110.917 101.588 114.588 97.9168 119.104 95.6158C124.238 93 130.959 93 144.4 93H185.6C199.041 93 205.762 93 210.896 95.6158C215.412 97.9168 219.083 101.588 221.384 106.104C224 111.238 224 117.959 224 131.4V255H106L106 131.4Z" fill="#88E5F9"/>
<path d="M150.5 122C150.5 122 148.333 124.167 144 124.167C139.667 124.167 137.5 122 137.5 122" stroke="black" stroke-width="4" stroke-linecap="round"/>
<path d="M176.5 122C176.5 122 174.333 124.167 170 124.167C165.667 124.167 163.5 122 163.5 122" stroke="black" stroke-width="4" stroke-linecap="round"/>
<path d="M131 134C131 134 139.667 143 157 143C174.333 143 183 134 183 134" stroke="black" stroke-width="4" stroke-linecap="round"/>
</svg>
