<svg width="136" height="48" viewBox="0 0 136 48" fill="none" xmlns="http://www.w3.org/2000/svg">
<path d="M35.0269 7.85073C37.1948 7.85073 38.9523 6.09328 38.9523 3.92536C38.9523 1.75744 37.1948 0 35.0269 0C32.859 0 31.1016 1.75744 31.1016 3.92536C31.1016 6.09328 32.859 7.85073 35.0269 7.85073Z" fill="#FF005E"/>
<path d="M39.1321 35.8867H41.7357L42.6313 30.2134H40.5737C39.0488 30.2134 38.2431 29.4243 38.2431 27.9327V10.793H31.8174V28.1392C31.8174 30.6029 32.42 32.5306 33.6053 33.8724C34.7872 35.2075 36.645 35.8833 39.1321 35.8833V35.8867Z" fill="#FF005E"/>
<path d="M59.9771 10.793L53.8443 28.7085L50.3251 21.6701C49.5028 19.9921 48.8702 18.2475 48.444 16.4829C48.0278 14.7683 48.0112 12.8572 48.3974 10.7963H41.7186C41.5288 11.9982 41.4689 13.2001 41.5355 14.3721C41.6054 15.594 41.925 17.0356 42.4844 18.6637C43.0471 20.3017 43.9793 22.4192 45.2478 24.9596L50.6281 35.88H57.3568L66.9588 10.793H59.9804H59.9771Z" fill="#FF005E"/>
<path d="M72.3574 11.8873C68.978 13.845 66.0049 17.7038 66.0049 23.7666C66.0049 26.4768 67.1102 36.5282 78.3869 36.5282C83.3977 36.5282 87.7425 34.5772 89.7502 29.7429L84.3033 27.4423C83.2712 29.7795 81.6531 31.1679 78.4935 31.1679C73.4528 31.1679 72.6703 26.6965 72.6703 26.6965C72.6703 26.6965 78.6133 27.1227 82.3256 25.9774C86.4707 24.6955 89.1675 22.042 89.1675 17.9002C89.1675 15.7295 88.3452 13.8783 86.7271 12.3934C83.2279 9.19052 75.9898 9.77982 72.3541 11.884L72.3574 11.8873ZM81.723 20.2341C80.9872 20.9333 79.8452 21.4693 78.327 21.8289C76.7222 22.2118 72.3507 21.9155 72.3507 21.9155C72.3507 21.9155 72.7769 18.6327 74.8444 16.8714C77.1051 14.9471 80.4778 14.5808 81.9594 15.9725C82.6519 16.6217 83.6807 18.3763 81.7197 20.2375L81.723 20.2341Z" fill="#FF005E"/>
<path d="M22.8383 36.5971C20.6176 36.5971 18.61 37.4728 17.7776 37.9122C15.8266 38.941 14.1752 39.8533 12.5438 40.7922C10.9124 41.7311 9.18778 42.6167 7.9226 42.4402C6.70737 42.2704 6.2013 41.255 6.2013 40.3826C6.2013 39.0809 7.76279 38.2285 9.19443 37.6259C10.8625 36.9267 13.9255 35.4918 17.8975 33.897C20.8973 32.6917 23.108 31.3799 24.8227 29.6553C26.5573 27.9107 27.8391 25.4869 27.8391 22.4738C27.8391 19.9901 27.2231 17.7927 25.9347 15.8616C26.807 15.8616 27.6693 15.9149 28.4617 16.0281L29.3606 10.4247C26.7004 10.0185 22.9915 10.0718 19.7719 10.974C18.2737 10.448 16.6223 10.1816 14.8344 10.1816C11.0489 10.1816 7.90263 11.3702 5.41889 13.7441C2.93516 16.1213 1.73324 19.0279 1.73324 22.4671C1.73324 24.4548 2.42909 26.4225 3.61769 28.2636C4.83958 30.1547 6.48763 31.4432 8.2622 32.472C5.42222 33.1745 0.681152 35.1522 0.681152 40.8721C0.681152 45.197 4.75634 48.0003 8.02248 48.0003C9.79373 48.0003 11.6682 47.6874 13.6192 46.7385C15.517 45.8162 17.0884 44.7542 18.5933 43.8186C19.5356 43.2326 20.9339 42.357 22.3589 42.357C23.7839 42.357 24.9225 43.4424 24.9225 45.197H30.6857C30.6857 40.1496 27.7126 36.5938 22.835 36.5938L22.8383 36.5971ZM12.0611 16.7173C13.4061 16.7173 14.2884 17.3898 14.7978 17.9824C15.3072 17.3898 16.1895 16.7173 17.5346 16.7173C19.8785 16.7173 21.4566 18.9213 21.4566 20.9789C21.4566 25.144 15.7001 28.5566 14.7978 28.5566C13.8956 28.5566 8.13901 25.1473 8.13901 20.9789C8.13901 18.9213 9.71382 16.7173 12.0611 16.7173Z" fill="#FF005E"/>
<path d="M113.306 10.3963C109.284 9.78367 103.261 10.0001 99.3653 13.0498C99.3121 12.9965 97.9803 11.7081 96.0626 10.1133L92.4169 14.4615C93.4623 15.3338 94.814 16.5523 95.3035 17.0251C92.7998 20.2779 91.6045 23.917 91.6045 27.8656C91.6045 33.0462 94.6176 36.5254 99.1023 36.5254C103.587 36.5254 106.583 33.0462 106.583 27.8656C106.583 24.1068 105.511 20.6974 103.128 17.3248C104.566 15.8365 109.29 15.3637 112.403 15.9997L113.302 10.3963H113.306ZM99.1023 30.8521C97.2778 30.8521 96.8783 28.4516 96.8783 27.6626C96.8783 23.8271 98.8926 21.38 99.1023 21.1336C99.3087 21.38 101.31 23.8271 101.31 27.6626C101.31 28.4516 100.91 30.8521 99.1023 30.8521Z" fill="#FF005E"/>
<path d="M135.319 10.3963C131.297 9.78367 125.274 10.0001 121.379 13.0498C121.326 12.9965 119.994 11.7081 118.076 10.1133L114.431 14.4615C115.476 15.3338 116.828 16.5523 117.317 17.0251C114.813 20.2779 113.618 23.917 113.618 27.8656C113.618 33.0462 116.631 36.5254 121.116 36.5254C125.601 36.5254 128.597 33.0462 128.597 27.8656C128.597 24.1068 127.525 20.6974 125.141 17.3248C126.58 15.8365 131.304 15.3637 134.417 15.9997L135.316 10.3963H135.319ZM121.116 30.8521C119.291 30.8521 118.892 28.4516 118.892 27.6626C118.892 23.8271 120.906 21.38 121.116 21.1336C121.322 21.38 123.323 23.8271 123.323 27.6626C123.323 28.4516 122.924 30.8521 121.116 30.8521Z" fill="#FF005E"/>
</svg>
