<svg width="20" height="20" viewBox="0 0 20 20" fill="none" xmlns="http://www.w3.org/2000/svg">
<g opacity="0.5">
<path d="M15 5.96797C14.95 5.95964 14.8917 5.95964 14.8417 5.96797C13.6917 5.92631 12.775 4.98464 12.775 3.81797C12.775 2.6263 13.7334 1.66797 14.925 1.66797C16.1167 1.66797 17.075 2.63464 17.075 3.81797C17.0667 4.98464 16.15 5.92631 15 5.96797Z" stroke="#1E1E1E" stroke-width="1.25" stroke-linecap="round" stroke-linejoin="round"/>
<path d="M14.1417 12.0348C15.2834 12.2264 16.5417 12.0264 17.425 11.4348C18.6 10.6514 18.6 9.3681 17.425 8.58477C16.5334 7.9931 15.2584 7.7931 14.1167 7.9931" stroke="#1E1E1E" stroke-width="1.25" stroke-linecap="round" stroke-linejoin="round"/>
<path d="M4.9749 5.96797C5.0249 5.95964 5.08324 5.95964 5.13324 5.96797C6.28324 5.92631 7.1999 4.98464 7.1999 3.81797C7.1999 2.6263 6.24157 1.66797 5.0499 1.66797C3.85824 1.66797 2.8999 2.63464 2.8999 3.81797C2.90824 4.98464 3.8249 5.92631 4.9749 5.96797Z" stroke="#1E1E1E" stroke-width="1.25" stroke-linecap="round" stroke-linejoin="round"/>
<path d="M5.83328 12.0348C4.69162 12.2264 3.43328 12.0264 2.54995 11.4348C1.37495 10.6514 1.37495 9.3681 2.54995 8.58477C3.44162 7.9931 4.71662 7.7931 5.85828 7.9931" stroke="#1E1E1E" stroke-width="1.25" stroke-linecap="round" stroke-linejoin="round"/>
<path d="M10 12.1906C9.95002 12.1823 9.89169 12.1823 9.84169 12.1906C8.69169 12.149 7.77502 11.2073 7.77502 10.0406C7.77502 8.84896 8.73336 7.89062 9.92502 7.89062C11.1167 7.89062 12.075 8.85729 12.075 10.0406C12.0667 11.2073 11.15 12.1573 10 12.1906Z" stroke="#1E1E1E" stroke-width="1.25" stroke-linecap="round" stroke-linejoin="round"/>
<path d="M7.57498 14.8148C6.39998 15.5982 6.39998 16.8815 7.57498 17.6648C8.90831 18.5565 11.0916 18.5565 12.425 17.6648C13.6 16.8815 13.6 15.5982 12.425 14.8148C11.1 13.9315 8.90831 13.9315 7.57498 14.8148Z" stroke="#1E1E1E" stroke-width="1.25" stroke-linecap="round" stroke-linejoin="round"/>
</g>
</svg>
