<svg width="143" height="128" viewBox="0 0 143 128" fill="none" xmlns="http://www.w3.org/2000/svg">
<path d="M37 41.7C37 34.9794 37 31.6191 38.3079 29.0521C39.4584 26.7942 41.2942 24.9584 43.5521 23.8079C46.1191 22.5 49.4794 22.5 56.2 22.5L84.8 22.5C91.5206 22.5 94.8809 22.5 97.4479 23.8079C99.7058 24.9584 101.542 26.7942 102.692 29.0521C104 31.6191 104 34.9794 104 41.7V128H37L37 41.7Z" fill="#5B39E3"/>
<path d="M78 52C78 52 79.5833 53.5 82.75 53.5C85.9167 53.5 87.5 52 87.5 52" stroke="#F5F3EF" stroke-width="2" stroke-linecap="round"/>
<path d="M85.5 40.5C85.5 40.5 86.8333 41 89.5 41C92.1667 41 93.5 40.5 93.5 40.5" stroke="#F5F3EF" stroke-width="2" stroke-linecap="round"/>
<path d="M70 40.5C70 40.5 71.3333 41 74 41C76.6667 41 78 40.5 78 40.5" stroke="#F5F3EF" stroke-width="2" stroke-linecap="round"/>
<path d="M77.5 95.6C77.5 86.6392 77.5 82.1587 79.2439 78.7362C80.7779 75.7256 83.2256 73.2779 86.2362 71.7439C89.6587 70 94.1392 70 103.1 70H116.9C125.861 70 130.341 70 133.764 71.7439C136.774 73.2779 139.222 75.7256 140.756 78.7362C142.5 82.1587 142.5 86.6392 142.5 95.6V128H77.5V95.6Z" fill="#FF532D"/>
<path d="M124 84C124 84 124.833 84.5 126.5 84.5C128.167 84.5 129 84 129 84" stroke="black" stroke-width="2" stroke-linecap="round"/>
<path d="M112.5 84.5C112.5 84.5 113.333 85 115 85C116.667 85 117.5 84.5 117.5 84.5" stroke="black" stroke-width="2" stroke-linecap="round"/>
<path d="M111 90C111 90 114.083 92.5 120.25 92.5C126.417 92.5 129.5 90 129.5 90" stroke="black" stroke-width="2" stroke-linecap="round"/>
<path d="M-16.5 19.7C-16.5 12.9794 -16.5 9.61905 -15.1921 7.05211C-14.0416 4.79417 -12.2058 2.9584 -9.94789 1.80792C-7.38095 0.5 -4.02063 0.5 2.7 0.5L32.8 0.5C39.5206 0.5 42.8809 0.5 45.4479 1.80792C47.7058 2.9584 49.5416 4.79417 50.6921 7.05211C52 9.61905 52 12.9794 52 19.7V128H-16.5L-16.5 19.7Z" fill="#FFC430"/>
<path d="M19.5 29C19.5 29 22.4167 31 28.25 31C34.0833 31 37 29 37 29" stroke="black" stroke-width="2" stroke-linecap="round"/>
<path d="M31.5 22.5C31.5 22.5 32.3333 23 34 23C35.6667 23 36.5 22.5 36.5 22.5" stroke="black" stroke-width="2" stroke-linecap="round"/>
<path d="M20 22.5C20 22.5 20.8333 23 22.5 23C24.1667 23 25 22.5 25 22.5" stroke="black" stroke-width="2" stroke-linecap="round"/>
</svg>
