<svg width="139" height="128" viewBox="0 0 139 128" fill="none" xmlns="http://www.w3.org/2000/svg">
<path d="M0 89.2C0 82.4794 0 79.1191 1.30792 76.5521C2.4584 74.2942 4.29417 72.4584 6.55211 71.3079C9.11905 70 12.4794 70 19.2 70H46.3C53.0206 70 56.3809 70 58.9479 71.3079C61.2058 72.4584 63.0416 74.2942 64.1921 76.5521C65.5 79.1191 65.5 82.4794 65.5 89.2V128H0L0 89.2Z" fill="#57230D"/>
<path d="M15 93C15 93 18.3333 97 25 97C31.6667 97 35 93 35 93" stroke="#F5F3EF" stroke-width="2" stroke-linecap="round"/>
<path d="M28 85.5C28 85.5 28.8333 86.5 30.5 86.5C32.1667 86.5 33 85.5 33 85.5" stroke="#F5F3EF" stroke-width="2" stroke-linecap="round"/>
<path d="M17 85.5C17 85.5 17.8333 86.5 19.5 86.5C21.1667 86.5 22 85.5 22 85.5" stroke="#F5F3EF" stroke-width="2" stroke-linecap="round"/>
<path d="M85.5 19.7C85.5 12.9794 85.5 9.61905 86.8079 7.05211C87.9584 4.79417 89.7942 2.9584 92.0521 1.80792C94.6191 0.5 97.9794 0.5 104.7 0.5L160.214 0.5C166.935 0.5 170.295 0.5 172.862 1.80792C175.12 2.9584 176.956 4.79417 178.106 7.05211C179.414 9.61905 179.414 12.9794 179.414 19.7V128.04H85.5V19.7Z" fill="#76D543"/>
<path d="M112 18.5C112 18.5 112.833 21 114.5 21C116.167 21 117 18.5 117 18.5" stroke="black" stroke-width="2" stroke-linecap="round"/>
<path d="M99.5 18.5C99.5 18.5 100.333 21 102 21C103.667 21 104.5 18.5 104.5 18.5" stroke="black" stroke-width="2" stroke-linecap="round"/>
<path d="M104.5 28C104.5 28 105.75 29 108.25 29C110.75 29 112 28 112 28" stroke="black" stroke-width="2" stroke-linecap="round"/>
<path d="M53 66.2C53 59.4794 53 56.1191 54.3079 53.5521C55.4584 51.2942 57.2942 49.4584 59.5521 48.3079C62.1191 47 65.4794 47 72.2 47H92.8C99.5206 47 102.881 47 105.448 48.3079C107.706 49.4584 109.542 51.2942 110.692 53.5521C112 56.1191 112 59.4794 112 66.2V128H53L53 66.2Z" fill="#88E5F9"/>
<path d="M75.25 61.5002C75.25 61.5002 74.1667 62.5835 72 62.5835C69.8333 62.5835 68.75 61.5002 68.75 61.5002" stroke="black" stroke-width="2" stroke-linecap="round"/>
<path d="M88.25 61.5002C88.25 61.5002 87.1667 62.5835 85 62.5835C82.8333 62.5835 81.75 61.5002 81.75 61.5002" stroke="black" stroke-width="2" stroke-linecap="round"/>
<path d="M65.5 67.5C65.5 67.5 69.8333 72 78.5 72C87.1667 72 91.5 67.5 91.5 67.5" stroke="black" stroke-width="2" stroke-linecap="round"/>
</svg>
