<svg width="20" height="20" viewBox="0 0 20 20" fill="none" xmlns="http://www.w3.org/2000/svg">
<g opacity="0.5">
<path d="M3.55005 9.18255V13.3242C3.55005 14.8409 3.55005 14.8409 4.98338 15.8076L8.92505 18.0826C9.51672 18.4242 10.4834 18.4242 11.075 18.0826L15.0167 15.8076C16.45 14.8409 16.45 14.8409 16.45 13.3242V9.18255C16.45 7.66589 16.45 7.66589 15.0167 6.69922L11.075 4.42422C10.4834 4.08255 9.51672 4.08255 8.92505 4.42422L4.98338 6.69922C3.55005 7.66589 3.55005 7.66589 3.55005 9.18255Z" stroke="#1E1E1E" stroke-width="1.25" stroke-linecap="round" stroke-linejoin="round"/>
<path d="M14.5834 6.35768V4.16602C14.5834 2.49935 13.7501 1.66602 12.0834 1.66602H7.91675C6.25008 1.66602 5.41675 2.49935 5.41675 4.16602V6.29935" stroke="#1E1E1E" stroke-width="1.25" stroke-linecap="round" stroke-linejoin="round"/>
<path d="M10.5251 9.15781L11.0001 9.89948C11.0751 10.0161 11.2418 10.1328 11.3668 10.1661L12.2168 10.3828C12.7418 10.5161 12.8834 10.9661 12.5418 11.3828L11.9834 12.0578C11.9001 12.1661 11.8334 12.3578 11.8418 12.4911L11.8918 13.3661C11.9251 13.9078 11.5418 14.1828 11.0418 13.9828L10.2251 13.6578C10.1001 13.6078 9.89177 13.6078 9.76677 13.6578L8.9501 13.9828C8.4501 14.1828 8.06677 13.8995 8.1001 13.3661L8.1501 12.4911C8.15843 12.3578 8.09177 12.1578 8.00843 12.0578L7.4501 11.3828C7.10843 10.9661 7.2501 10.5161 7.7751 10.3828L8.6251 10.1661C8.75844 10.1328 8.9251 10.0078 8.99177 9.89948L9.46677 9.15781C9.76677 8.70781 10.2334 8.70781 10.5251 9.15781Z" stroke="#1E1E1E" stroke-width="1.25" stroke-linecap="round" stroke-linejoin="round"/>
</g>
</svg>
