<svg width="20" height="20" viewBox="0 0 20 20" fill="none" xmlns="http://www.w3.org/2000/svg">
<g opacity="0.5">
<path d="M10.0167 1.5C7.25841 1.5 5.01674 3.74167 5.01674 6.5V8.90833C5.01674 9.41667 4.80007 10.1917 4.54174 10.625L3.58341 12.2167C2.99174 13.2 3.40007 14.2917 4.48341 14.6583C8.07507 15.8583 11.9501 15.8583 15.5417 14.6583C16.5501 14.325 16.9917 13.1333 16.4417 12.2167L15.4834 10.625C15.2334 10.1917 15.0167 9.41667 15.0167 8.90833V6.5C15.0167 3.75 12.7667 1.5 10.0167 1.5Z" stroke="#24181B" stroke-width="1.25" stroke-miterlimit="10" stroke-linecap="round"/>
<path d="M7.5 15.5742L7.51672 16.0742C7.51672 16.7576 7.80006 17.3909 8.25006 17.8409C8.70006 18.2909 9.33339 18.5742 10.0167 18.5742C11.3917 18.5742 12.5167 17.4492 12.5167 16.0742L12.5 15.5742" stroke="#24181B" stroke-width="1.25" stroke-miterlimit="10"/>
</g>
</svg>
