<svg width="20" height="20" viewBox="0 0 20 20" fill="none" xmlns="http://www.w3.org/2000/svg">
<g opacity="0.5">
<circle cx="14.4422" cy="8.41667" r="2.16667" stroke="#24181B" stroke-width="1.25"/>
<path d="M12.2068 16.4603L11.7578 16.0256C11.6198 16.1681 11.5577 16.3676 11.5903 16.5632C11.623 16.7588 11.7465 16.9273 11.9233 17.0173L12.2068 16.4603ZM12.2923 12.7871L12.0234 12.2229C11.8451 12.3079 11.7174 12.4722 11.6792 12.6661C11.6409 12.8599 11.6965 13.0604 11.8292 13.2068L12.2923 12.7871ZM17.2409 13.054L16.8938 13.5737L16.8948 13.5743L17.2409 13.054ZM17.2409 16.2336L17.5885 16.753L17.5886 16.7529L17.2409 16.2336ZM12.6558 16.8951C13.2874 16.2428 13.6418 15.4604 13.66 14.6426C13.6783 13.824 13.3583 13.0326 12.7554 12.3674L11.8292 13.2068C12.2454 13.666 12.4206 14.1555 12.4103 14.6147C12.4001 15.0746 12.2022 15.5665 11.7578 16.0256L12.6558 16.8951ZM17.5881 12.5342C16.0517 11.5082 13.7022 11.4227 12.0234 12.2229L12.5612 13.3513C13.8806 12.7224 15.7577 12.8149 16.8938 13.5737L17.5881 12.5342ZM17.5886 16.7529C18.3735 16.2275 18.8491 15.4742 18.8491 14.6417C18.8491 13.8088 18.373 13.0565 17.5871 12.5336L16.8948 13.5743C17.4197 13.9236 17.5991 14.3223 17.5991 14.6417C17.5991 14.9616 17.4192 15.3621 16.8933 15.7142L17.5886 16.7529ZM11.9233 17.0173C13.6087 17.8753 16.0202 17.8024 17.5885 16.753L16.8934 15.7141C15.7288 16.4933 13.803 16.5716 12.4903 15.9033L11.9233 17.0173Z" fill="#24181B"/>
<circle cx="7.21749" cy="4.99935" r="3.33333" stroke="#24181B" stroke-width="1.25"/>
<path d="M3.18169 12.132C1.16502 13.482 1.16502 15.682 3.18169 17.0237C5.47336 18.557 9.23169 18.557 11.5234 17.0237C13.54 15.6737 13.54 13.4737 11.5234 12.132C9.24002 10.607 5.48169 10.607 3.18169 12.132Z" stroke="#24181B" stroke-width="1.25" stroke-linecap="round" stroke-linejoin="round"/>
</g>
</svg>
