<svg width="25" height="24" viewBox="0 0 25 24" fill="none" xmlns="http://www.w3.org/2000/svg">
<circle cx="17.8305" cy="10.1" r="2.6" stroke="#24181B" stroke-width="1.5"/>
<path d="M15.1484 19.7516L14.6096 19.2298C14.4441 19.4008 14.3695 19.6403 14.4087 19.8751C14.4479 20.1098 14.5962 20.3121 14.8083 20.42L15.1484 19.7516ZM15.2507 15.3432L14.9281 14.6661C14.714 14.7681 14.5608 14.9654 14.5149 15.198C14.469 15.4306 14.5358 15.6712 14.6951 15.8469L15.2507 15.3432ZM21.1887 15.6636L20.7722 16.2873L20.7733 16.288L21.1887 15.6636ZM21.1887 19.4791L21.6058 20.1024L21.606 20.1024L21.1887 19.4791ZM15.6872 20.2733C16.4452 19.4905 16.8706 18.5514 16.8924 17.5699C16.9142 16.5875 16.53 15.6377 15.8064 14.8395L14.6951 15.8469C15.1947 16.398 15.405 16.9855 15.3928 17.5366C15.3805 18.0885 15.1431 18.679 14.6096 19.2298L15.6872 20.2733ZM21.6053 15.0399C19.7618 13.8087 16.9426 13.7061 14.9281 14.6661L15.5734 16.0202C17.1566 15.2658 19.409 15.3768 20.7722 16.2873L21.6053 15.0399ZM21.606 20.1024C22.5478 19.4719 23.1185 18.5679 23.1185 17.5689C23.1185 16.5694 22.5472 15.6666 21.6042 15.0392L20.7733 16.288C21.4032 16.7071 21.6185 17.1855 21.6185 17.5689C21.6185 17.9528 21.4027 18.4334 20.7715 18.8559L21.606 20.1024ZM14.8083 20.42C16.8308 21.4491 19.7241 21.3615 21.6058 20.1024L20.7717 18.8558C19.3744 19.7907 17.0638 19.8847 15.4886 19.0831L14.8083 20.42Z" fill="#24181B"/>
<circle cx="9.16211" cy="6" r="4" stroke="#24181B" stroke-width="1.5"/>
<path d="M4.31891 14.56C1.89891 16.18 1.89891 18.82 4.31891 20.43C7.06891 22.27 11.5789 22.27 14.3289 20.43C16.7489 18.81 16.7489 16.17 14.3289 14.56C11.5889 12.73 7.07891 12.73 4.31891 14.56Z" stroke="#24181B" stroke-width="1.5" stroke-linecap="round" stroke-linejoin="round"/>
</svg>
