<svg width="139" height="128" viewBox="0 0 139 128" fill="none" xmlns="http://www.w3.org/2000/svg">
<path d="M0 89.2C0 82.4794 0 79.1191 1.30792 76.5521C2.4584 74.2942 4.29417 72.4584 6.55211 71.3079C9.11905 70 12.4794 70 19.2 70H46.3C53.0206 70 56.3809 70 58.9479 71.3079C61.2058 72.4584 63.0416 74.2942 64.1921 76.5521C65.5 79.1191 65.5 82.4794 65.5 89.2V128H0L0 89.2Z" fill="#57230D"/>
<path d="M19.5 85L19.5 88" stroke="#F5F3EF" stroke-width="2" stroke-linecap="round"/>
<path d="M32.5 86C32.5 86 31.5833 85 29.75 85C27.9167 85 27 86 27 86" stroke="#F5F3EF" stroke-width="2" stroke-linecap="round"/>
<path d="M15 92.5C15 92.5 18.3333 98.5 25 98.5C31.6667 98.5 35 92.5 35 92.5" stroke="#F5F3EF" stroke-width="2" stroke-linecap="round"/>
<path d="M85.5 19.7C85.5 12.9794 85.5 9.61905 86.8079 7.05211C87.9584 4.79417 89.7942 2.9584 92.0521 1.80792C94.6191 0.5 97.9794 0.5 104.7 0.5L160.214 0.5C166.935 0.5 170.295 0.5 172.862 1.80792C175.12 2.9584 176.956 4.79417 178.106 7.05211C179.414 9.61905 179.414 12.9794 179.414 19.7V128.04H85.5V19.7Z" fill="#76D543"/>
<path d="M100.5 20.6665C100.5 20.6665 104.375 19.8054 104.375 18.0832C104.375 16.3609 100.5 15.4998 100.5 15.4998" stroke="black" stroke-width="2" stroke-linecap="round"/>
<path d="M116 15.5C116 15.5 112.125 16.3611 112.125 18.0833C112.125 19.8056 116 20.6667 116 20.6667" stroke="black" stroke-width="2" stroke-linecap="round"/>
<path d="M101.793 25.8333C101.793 25.8333 103.946 31 108.251 31C112.557 31 114.71 25.8333 114.71 25.8333" stroke="black" stroke-width="2" stroke-linecap="round"/>
<path d="M53 66.2C53 59.4794 53 56.1191 54.3079 53.5521C55.4584 51.2942 57.2942 49.4584 59.5521 48.3079C62.1191 47 65.4794 47 72.2 47H92.8C99.5206 47 102.881 47 105.448 48.3079C107.706 49.4584 109.542 51.2942 110.692 53.5521C112 56.1191 112 59.4794 112 66.2V128H53L53 66.2Z" fill="#88E5F9"/>
<path d="M75.25 62.0833C75.25 62.0833 74.1667 61 72 61C69.8333 61 68.75 62.0833 68.75 62.0833" stroke="black" stroke-width="2" stroke-linecap="round"/>
<path d="M88.25 62.0833C88.25 62.0833 87.1667 61 85 61C82.8333 61 81.75 62.0833 81.75 62.0833" stroke="black" stroke-width="2" stroke-linecap="round"/>
<path d="M65.5 67.1391C65.5 67.1391 69.8333 74.3613 78.5 74.3613C87.1667 74.3613 91.5 67.1391 91.5 67.1391" stroke="black" stroke-width="2" stroke-linecap="round"/>
</svg>
