<svg width="20" height="20" viewBox="0 0 20 20" fill="none" xmlns="http://www.w3.org/2000/svg">
<g clip-path="url(#clip0_86_1637)">
<path d="M14.0335 2.09961C14.8623 2.51875 15.619 3.0673 16.2752 3.72461C17.4228 4.8774 18.2311 6.32366 18.6118 7.90512C18.9925 9.48657 18.9308 11.1423 18.4335 12.691C17.9362 14.2398 17.0224 15.6218 15.7922 16.686C14.562 17.7502 13.0627 18.4555 11.4585 18.7246" stroke="#E60054" stroke-width="1.25" stroke-miterlimit="10" stroke-linecap="round"/>
<path d="M5.96665 17.9004C5.13785 17.4812 4.38113 16.9327 3.72498 16.2754C2.57737 15.1226 1.76899 13.6763 1.38832 12.0949C1.00764 10.5134 1.06934 8.85773 1.56666 7.30899C2.06397 5.76025 2.97775 4.37816 4.20797 3.31398C5.43819 2.2498 6.93744 1.54454 8.54165 1.27539" stroke="#E60054" stroke-width="1.25" stroke-miterlimit="10" stroke-linecap="round"/>
<path d="M14.0332 5.15859V1.93359H17.2582" stroke="#E60054" stroke-width="1.25" stroke-miterlimit="10" stroke-linecap="round"/>
<path d="M5.9667 14.8418V18.0668H2.7417" stroke="#E60054" stroke-width="1.25" stroke-miterlimit="10" stroke-linecap="round"/>
<path d="M13.1083 10.9249C13.1083 11.7493 12.7808 12.5399 12.1979 13.1228C11.6149 13.7057 10.8243 14.0332 9.99993 14.0332C9.17555 14.0332 8.38494 13.7057 7.80201 13.1228C7.21909 12.5399 6.8916 11.7493 6.8916 10.9249C6.8916 8.26654 9.99993 5.1582 9.99993 5.1582C9.99993 5.1582 13.1083 8.26654 13.1083 10.9249Z" stroke="#E60054" stroke-width="1.25" stroke-miterlimit="10" stroke-linejoin="round"/>
</g>
<defs>
<clipPath id="clip0_86_1637">
<rect width="20" height="20" fill="white"/>
</clipPath>
</defs>
</svg>
