<svg width="24" height="24" viewBox="0 0 24 24" fill="none" xmlns="http://www.w3.org/2000/svg">
<g filter="url(#filter0_d_590_44967)">
<path d="M12.6202 20.8103C12.2802 20.9303 11.7202 20.9303 11.3802 20.8103C8.48024 19.8203 2.00024 15.6903 2.00024 8.69034C2.00024 5.60034 4.49024 3.10034 7.56024 3.10034C9.38024 3.10034 10.9902 3.98034 12.0002 5.34034C13.0102 3.98034 14.6302 3.10034 16.4402 3.10034C19.5102 3.10034 22.0002 5.60034 22.0002 8.69034C22.0002 15.6903 15.5202 19.8203 12.6202 20.8103Z" fill="#E60054"/>
<path d="M12.6202 20.8103C12.2802 20.9303 11.7202 20.9303 11.3802 20.8103C8.48024 19.8203 2.00024 15.6903 2.00024 8.69034C2.00024 5.60034 4.49024 3.10034 7.56024 3.10034C9.38024 3.10034 10.9902 3.98034 12.0002 5.34034C13.0102 3.98034 14.6302 3.10034 16.4402 3.10034C19.5102 3.10034 22.0002 5.60034 22.0002 8.69034C22.0002 15.6903 15.5202 19.8203 12.6202 20.8103Z" stroke="white" stroke-width="1.5" stroke-linecap="round" stroke-linejoin="round"/>
</g>
<defs>
<filter id="filter0_d_590_44967" x="0.250244" y="1.35034" width="23.5" height="21.3" filterUnits="userSpaceOnUse" color-interpolation-filters="sRGB">
<feFlood flood-opacity="0" result="BackgroundImageFix"/>
<feColorMatrix in="SourceAlpha" type="matrix" values="0 0 0 0 0 0 0 0 0 0 0 0 0 0 0 0 0 0 127 0" result="hardAlpha"/>
<feOffset/>
<feGaussianBlur stdDeviation="0.5"/>
<feComposite in2="hardAlpha" operator="out"/>
<feColorMatrix type="matrix" values="0 0 0 0 0 0 0 0 0 0 0 0 0 0 0 0 0 0 0.25 0"/>
<feBlend mode="normal" in2="BackgroundImageFix" result="effect1_dropShadow_590_44967"/>
<feBlend mode="normal" in="SourceGraphic" in2="effect1_dropShadow_590_44967" result="shape"/>
</filter>
</defs>
</svg>
