<svg width="20" height="20" viewBox="0 0 20 20" fill="none" xmlns="http://www.w3.org/2000/svg">
<path d="M3.6333 4.43359H16.3666V16.3669C16.3666 16.999 16.1155 17.6052 15.6686 18.0522C15.2216 18.4992 14.6154 18.7503 13.9833 18.7503H6.02497C5.39287 18.7503 4.78666 18.4992 4.3397 18.0522C3.89273 17.6052 3.64163 16.999 3.64163 16.3669V4.43359H3.6333Z" stroke="#E60054" stroke-width="1.25" stroke-miterlimit="10"/>
<path d="M2.04199 4.43359H17.9587" stroke="#E60054" stroke-width="1.25" stroke-miterlimit="10" stroke-linecap="round"/>
<path d="M13.1836 4.43333H6.81689L7.30856 2.5C7.38765 2.14715 7.58394 1.8315 7.86542 1.6045C8.14689 1.3775 8.49696 1.25254 8.85856 1.25H11.1419C11.5035 1.25254 11.8536 1.3775 12.135 1.6045C12.4165 1.8315 12.6128 2.14715 12.6919 2.5L13.1836 4.43333Z" stroke="#E60054" stroke-width="1.25" stroke-miterlimit="10"/>
<path d="M9.20023 13.975H6.81689L7.97523 12.25" stroke="#E60054" stroke-width="1.25" stroke-miterlimit="10" stroke-linejoin="round"/>
<path d="M12.0248 12.25L13.1831 13.975H10.7998" stroke="#E60054" stroke-width="1.25" stroke-miterlimit="10" stroke-linejoin="round"/>
<path d="M8.8501 10.9326L10.0001 9.19922L11.1501 10.9326" stroke="#E60054" stroke-width="1.25" stroke-miterlimit="10" stroke-linejoin="round"/>
</svg>
