<svg width="24" height="24" viewBox="0 0 24 24" fill="none" xmlns="http://www.w3.org/2000/svg">
<g clip-path="url(#clip0_1559_1589)">
<path fill-rule="evenodd" clip-rule="evenodd" d="M13.6698 23.8848C19.5059 23.0717 23.9983 18.0612 23.9983 12.0004H24C24 5.37294 18.6272 0 12 0C5.37276 0 0 5.37294 0 12.0004C0 17.9729 4.36379 22.9271 10.0771 23.847C10.7026 23.9479 11.345 24 11.9992 24C12.5659 24 13.1242 23.9605 13.6698 23.8848ZM17.7317 6.42857H15.7383L12.4535 9.98914L9.61338 6.42857H5.5L10.4148 12.5229L5.75671 17.5714H7.75133L11.3465 13.676L14.4885 17.5714H18.5L13.3767 11.1486L17.7317 6.42857ZM16.1432 16.44H15.0386L7.82786 7.50057H9.01319L16.1432 16.44Z" fill="#FFF3D6"/>
</g>
<defs>
<clipPath id="clip0_1559_1589">
<rect width="24" height="24" fill="white"/>
</clipPath>
</defs>
</svg>
