<svg width="260" height="229" viewBox="0 0 260 229" fill="none" xmlns="http://www.w3.org/2000/svg">
<path d="M0 38.4C0 24.9587 0 18.2381 2.61584 13.1042C4.9168 8.58834 8.58834 4.9168 13.1042 2.61584C18.2381 0 24.9587 0 38.4 0L68.6 0C82.0413 0 88.7619 0 93.8958 2.61584C98.4117 4.9168 102.083 8.58834 104.384 13.1042C107 18.2381 107 24.9587 107 38.4L107 229H0L0 38.4Z" fill="#0D689C"/>
<path d="M54 39C54 39 61 37.5 61 34.5C61 31.5 54 30 54 30" stroke="black" stroke-width="4" stroke-linecap="round"/>
<path d="M82 30C82 30 75 31.5 75 34.5C75 37.5 82 39 82 39" stroke="black" stroke-width="4" stroke-linecap="round"/>
<rect width="19.9993" height="4.26107" rx="0.71426" transform="matrix(-1 0 0 1 118.297 90.3008)" fill="#FAA601"/>
<rect width="62.1406" height="31.2479" rx="8.57112" transform="matrix(-1 0 0 1 138.141 60)" fill="#FFB700"/>
<ellipse cx="13.5709" cy="13.4934" rx="13.5709" ry="13.4934" transform="matrix(-1 0 0 1 107.031 62.1328)" fill="#24181B" fill-opacity="0.5"/>
<ellipse cx="11.4282" cy="11.3629" rx="11.4282" ry="11.3629" transform="matrix(-1 0 0 1 104.883 64.2617)" fill="white"/>
<ellipse cx="9.99964" cy="9.9425" rx="9.99964" ry="9.9425" transform="matrix(-1 0 0 1 103.469 65.6816)" fill="#24181B"/>
<ellipse opacity="0.24" cx="6.42834" cy="6.39161" rx="6.42834" ry="6.39161" transform="matrix(-1 0 0 1 99.8828 69.2324)" fill="white"/>
<mask id="mask0_9_22463" style="mask-type:alpha" maskUnits="userSpaceOnUse" x="87" y="69" width="13" height="14">
<ellipse opacity="0.24" cx="6.42834" cy="6.39161" rx="6.42834" ry="6.39161" transform="matrix(-1 0 0 1 99.8984 69.2344)" fill="white"/>
</mask>
<g mask="url(#mask0_9_22463)">
<ellipse opacity="0.24" cx="6.42834" cy="6.39161" rx="6.42834" ry="6.39161" transform="matrix(-1 0 0 1 101.32 74.916)" fill="white"/>
</g>
<ellipse cx="1.42852" cy="1.42036" rx="1.42852" ry="1.42036" transform="matrix(-1 0 0 1 107.328 62.8438)" fill="#D61D1B"/>
<path d="M78 132.4C78 118.959 78 112.238 80.6158 107.104C82.9168 102.588 86.5883 98.9168 91.1042 96.6158C96.2381 94 102.959 94 116.4 94H146.86C160.301 94 167.022 94 172.156 96.6158C176.672 98.9168 180.343 102.588 182.644 107.104C185.26 112.238 185.26 118.959 185.26 132.4V229H78L78 132.4Z" fill="#FF532D"/>
<path d="M148 112V120" stroke="black" stroke-width="4" stroke-linecap="round"/>
<path d="M164 112V120" stroke="black" stroke-width="4" stroke-linecap="round"/>
<path d="M138 124C138 124 144 133 156 133C168 133 174 124 174 124" stroke="black" stroke-width="4" stroke-linecap="round"/>
<rect x="163" y="159" width="97" height="64" rx="5.3375" fill="#FF79BE"/>
<rect x="144" y="223" width="116" height="6" rx="3" fill="#FF79BE"/>
<rect x="206" y="187" width="10" height="10" rx="5" fill="white"/>
</svg>
