<svg width="336" height="229" viewBox="0 0 336 229" fill="none" xmlns="http://www.w3.org/2000/svg">
<path d="M201 38.4C201 24.9587 201 18.2381 203.616 13.1042C205.917 8.58834 209.588 4.9168 214.104 2.61584C219.238 0 225.959 0 239.4 0L297.6 0C311.041 0 317.762 0 322.896 2.61584C327.412 4.9168 331.083 8.58834 333.384 13.1042C336 18.2381 336 24.9587 336 38.4V229H201V38.4Z" fill="#FFB700"/>
<path d="M240.5 25.1667C240.5 25.1667 238.333 23 234 23C229.667 23 227.5 25.1667 227.5 25.1667" stroke="black" stroke-width="4" stroke-linecap="round"/>
<path d="M266.5 25.1667C266.5 25.1667 264.333 23 260 23C255.667 23 253.5 25.1667 253.5 25.1667" stroke="black" stroke-width="4" stroke-linecap="round"/>
<path d="M221 35.2782C221 35.2782 229.667 49.7227 247 49.7227C264.333 49.7227 273 35.2782 273 35.2782" stroke="black" stroke-width="4" stroke-linecap="round"/>
<path d="M24 102.4C24 88.9587 24 82.2381 26.6158 77.1042C28.9168 72.5883 32.5883 68.9168 37.1042 66.6158C42.2381 64 48.9587 64 62.4 64L106.6 64C120.041 64 126.762 64 131.896 66.6158C136.412 68.9168 140.083 72.5883 142.384 77.1042C145 82.2381 145 88.9587 145 102.4V228H24L24 102.4Z" fill="#57230D"/>
<path d="M62 94V103" stroke="#F5F3EF" stroke-width="4" stroke-linecap="round"/>
<path d="M85 94V103" stroke="#F5F3EF" stroke-width="4" stroke-linecap="round"/>
<rect x="11" y="153" width="26.6667" height="49.3333" rx="13.3333" fill="#FF532D"/>
<rect width="8" height="13.3333" transform="translate(11 165)" fill="#FF532D"/>
<path d="M11 165H17.6667C18.403 165 19 165.597 19 166.333V166.333C19 167.07 18.403 167.667 17.6667 167.667H11V165Z" fill="#F5F3EF"/>
<path d="M11 170.333H17.6667C18.403 170.333 19 170.93 19 171.667V171.667C19 172.403 18.403 173 17.6667 173H11V170.333Z" fill="#F5F3EF"/>
<path d="M11 175.667H17.6667C18.403 175.667 19 176.263 19 177V177C19 177.736 18.403 178.333 17.6667 178.333H11V175.667Z" fill="#F5F3EF"/>
<rect width="8" height="13.3333" transform="translate(29.6719 165)" fill="#FF532D"/>
<path d="M29.6719 166.333C29.6719 165.597 30.2688 165 31.0052 165H37.6719V167.667H31.0052C30.2688 167.667 29.6719 167.07 29.6719 166.333V166.333Z" fill="#57230D"/>
<path d="M29.6719 171.667C29.6719 170.93 30.2688 170.333 31.0052 170.333H37.6719V173H31.0052C30.2688 173 29.6719 172.403 29.6719 171.667V171.667Z" fill="#57230D"/>
<path d="M29.6719 177C29.6719 176.263 30.2688 175.667 31.0052 175.667H37.6719V178.333H31.0052C30.2688 178.333 29.6719 177.736 29.6719 177V177Z" fill="#57230D"/>
<path d="M48.3333 186.334C48.3333 184.861 47.1394 183.667 45.6667 183.667C44.1939 183.667 43 184.861 43 186.334H48.3333ZM5.66667 186.334C5.66667 184.861 4.47276 183.667 3 183.667C1.52724 183.667 0.333333 184.861 0.333333 186.334H5.66667ZM21.6667 225.5V228.167H27V225.5H21.6667ZM43 186.334V189.001H48.3333V186.334H43ZM5.66667 189.001V186.334H0.333333V189.001H5.66667ZM21.6667 210.334V225.5H27V210.334H21.6667ZM0.333333 189.001C0.333333 202.255 11.0785 213.001 24.3333 213.001V207.667C14.024 207.667 5.66667 199.31 5.66667 189.001H0.333333ZM43 189.001C43 199.31 34.6426 207.667 24.3333 207.667V213.001C37.5882 213.001 48.3333 202.255 48.3333 189.001H43Z" fill="#FF532D"/>
<rect x="48" y="123" width="12" height="18" rx="6" stroke="#F5F3EF" stroke-width="4"/>
<path d="M116 124.4C116 110.959 116 104.238 118.616 99.1042C120.917 94.5883 124.588 90.9168 129.104 88.6158C134.238 86 140.959 86 154.4 86H182.6C196.041 86 202.762 86 207.896 88.6158C212.412 90.9168 216.083 94.5883 218.384 99.1042C221 104.238 221 110.959 221 124.4V228H116L116 124.4Z" fill="#7FE548"/>
<path d="M142 116V128.8" stroke="black" stroke-width="4" stroke-linecap="round"/>
<path d="M146 145C146 145 148.833 148 154.5 148C160.167 148 163 145 163 145" stroke="black" stroke-width="4" stroke-linecap="round"/>
<path d="M167.594 116V128.8" stroke="black" stroke-width="4" stroke-linecap="round"/>
<rect x="108" y="121" width="8" height="36" rx="4" fill="#24181B"/>
<rect x="221" y="121" width="8" height="36" rx="4" fill="#24181B"/>
<path d="M96 133C96 128.582 99.5817 125 104 125H108V153H104C99.5817 153 96 149.418 96 145V133Z" fill="#FF532D"/>
<path d="M229 125H233C237.418 125 241 128.582 241 133V145C241 149.418 237.418 153 233 153H229V125Z" fill="#FF532D"/>
<path d="M233 128V126.5C233 90.8776 204.122 62 168.5 62V62C132.878 62 104 90.8776 104 126.5V128" stroke="#FF532D" stroke-width="4"/>
</svg>
